<svg xmlns="http://www.w3.org/2000/svg" width="363.472" height="98.413" viewBox="0 0 363.472 98.413"><g transform="translate(-73.1 -394.958)"><path d="M267.5,459.8h8.9v47.326h7.4V459.8h8.9v-6.2H267.5Z" transform="translate(-113.555 -34.255)" fill="#464e7d"/><path d="M346.418,452.5c-10.106,0-12.518,6.612-12.518,14.1v27.073c0,8.317,3.036,13.266,12.393,13.266,8.609,0,10.9-4.283,10.9-9.939v-5.947H350.2v3.7c0,4.45-1.788,6.363-4.533,6.363-2.371,0-4.367-1.123-4.367-7.4V467.471c0-6.446.749-9.191,4.616-9.191,3.119,0,4.284,2.163,4.284,5.573v3.7h6.987v-5.323C357.147,456.2,353.737,452.5,346.418,452.5Z" transform="translate(-152.341 -33.612)" fill="#464e7d"/><path d="M421.23,498.057h-.125L412.33,453.6H402.1v53.523h6.529V461.46h.166l8.733,45.663h10.688V453.6H421.23Z" transform="translate(-192.178 -34.255)" fill="#464e7d"/><path d="M489.25,496.376c0,2.745-.291,5.323-3.036,5.323-2.537,0-2.828-2.911-2.828-5.032v-5.282H476.4v6.9c0,7.361,3.618,9.191,9.773,9.191,7.361,0,10.438-3.784,10.438-10.314V453.5h-7.4v42.876Z" transform="translate(-235.579 -34.196)" fill="#464e7d"/><path d="M555,478.643h3.493V456.311h4.2V453.4H550.8v2.911H555Z" transform="translate(-279.038 -34.138)" fill="#464e7d"/><path d="M589.893,467.165h4.658v11.478h3.493V453.4h-3.493v10.813h-4.658V453.4H586.4v25.243h3.493Z" transform="translate(-299.833 -34.138)" fill="#464e7d"/><path d="M630.124,475.691h-6.03v-8.525h5.7v-2.953h-5.7v-7.9h6.03V453.4H620.6v25.243h9.523Z" transform="translate(-319.81 -34.138)" fill="#464e7d"/><path d="M667.722,478.5c4.076,0,5.157-2.038,5.157-4.7v-2.786h-3.285v1.747c0,2.079-.832,2.994-2.121,2.994-1.123,0-2.079-.541-2.079-3.493V459.87c0-3.036.333-4.325,2.163-4.325,1.456,0,2.038,1,2.038,2.62v1.747h3.285v-2.537c0-2.828-1.622-4.575-5.074-4.575-4.741,0-5.905,3.119-5.905,6.654v12.767C661.9,476.172,663.314,478.5,667.722,478.5Z" transform="translate(-343.935 -33.787)" fill="#464e7d"/><path d="M699.705,452.9c-4.741,0-5.905,3.119-5.905,6.654v12.767c0,3.909,1.456,6.28,5.905,6.28,4.783,0,5.947-3.119,5.947-6.654V459.18C705.652,455.229,704.238,452.9,699.705,452.9Zm2.454,19.629c0,2.163-1,3.327-2.454,3.327s-2.412-1.164-2.412-3.327V459.263c0-2.5.832-3.66,2.412-3.66,1.622,0,2.454,1.164,2.454,3.66Z" transform="translate(-362.568 -33.846)" fill="#464e7d"/><path d="M737.7,475.691h-5.905V453.4H728.3v25.243h9.4Z" transform="translate(-382.721 -34.138)" fill="#464e7d"/><path d="M764.2,475.691h-5.905V453.4H754.8v25.243h9.4Z" transform="translate(-398.2 -34.138)" fill="#464e7d"/><path d="M790.823,475.691h-6.03v-8.525h5.7v-2.953h-5.7v-7.9h6.03V453.4H781.3v25.243h9.523Z" transform="translate(-413.68 -34.138)" fill="#464e7d"/><path d="M815.364,478.559a31.51,31.51,0,0,0,5.781-.624V465.251h-5.822V468.2h2.329v7.4a9.022,9.022,0,0,1-2.246.25c-1.456,0-2.412-1.289-2.412-3.327V459.8c0-2.7.79-4.159,2.412-4.159,1.372,0,2.246,1.081,2.246,2.87V459.8h3.493v-2.329c0-3.2-1.955-4.575-5.7-4.575-4.533,0-5.947,1.913-5.947,6.654v12.767C809.5,476.23,810.914,478.559,815.364,478.559Z" transform="translate(-430.152 -33.846)" fill="#464e7d"/><path d="M843.7,478.643h9.523v-2.953h-6.03v-8.525h5.7v-2.953h-5.7v-7.9h6.03V453.4H843.7Z" transform="translate(-450.129 -34.138)" fill="#464e7d"/><path d="M891.505,478.5c4.783,0,5.947-3.119,5.947-6.654V459.08c0-3.909-1.456-6.28-5.947-6.28-4.741,0-5.905,3.119-5.905,6.654v12.767C885.6,476.172,887.056,478.5,891.505,478.5Zm-2.412-19.3c0-2.5.832-3.66,2.412-3.66,1.622,0,2.454,1.164,2.454,3.66v13.266c0,2.163-1,3.327-2.454,3.327s-2.412-1.164-2.412-3.327Z" transform="translate(-474.604 -33.787)" fill="#464e7d"/><path d="M925.293,467.165h5.656v-2.953h-5.656v-7.9h6.03V453.4H921.8v25.243h3.493Z" transform="translate(-495.75 -34.138)" fill="#464e7d"/><path d="M572.771,536.7c-1.04.042-1.83.083-3.161.083-1.164,0-2.2-.042-3.618-.083-.25.083-.291.582-.042.749l.5.042c1.206.166,1.705.333,1.871.624.582.915.624,4.866.624,6.321v6.529a3.142,3.142,0,0,1-.125,1.289h-.042c-1.414-1.456-2.911-3.161-5.032-5.531l-2.953-3.327c-1-1.123-4.616-5.157-5.2-6.7-.416.042-.915.083-1.414.083-.541,0-2.162,0-3.452-.083a.494.494,0,0,0-.042.749l.5.042a2.952,2.952,0,0,1,1.871.749,2.859,2.859,0,0,1,.665,2.2v8.817c0,1.456.042,5.2-.416,6.28-.166.333-.624.5-1.331.624l-.832.083a.569.569,0,0,0,.042.749c1.081-.042,1.871-.083,3.161-.083,1.123,0,2.2.042,3.576.083a.524.524,0,0,0,.042-.749l-.957-.083c-.749-.042-1.372-.25-1.539-.582-.5-.915-.541-4.866-.541-6.321v-6.654a7.629,7.629,0,0,1,.166-2h.042c.624.665,2.7,3.161,3.535,4.117l7.07,8.068c2.662,3.036,3.535,4.076,3.909,4.616a.6.6,0,0,0,.582-.333c-.083-.79-.083-4.408-.083-5.323v-7.278c0-1.414-.042-5.2.457-6.28.125-.25.749-.5,1.705-.624l.416-.042A.529.529,0,0,0,572.771,536.7Z" transform="translate(-278.884 -82.796)" fill="#464e7d"/><path d="M621.571,552.545a7.614,7.614,0,0,1-2.163,2.953c-.665.333-1.539.457-3.909.457-2.7,0-3.327-.333-3.7-.707-.5-.5-.582-1.539-.582-3.161V547.8c0-.79.083-.832,1-.832H614a9.467,9.467,0,0,1,2.329.166,1.331,1.331,0,0,1,.956,1.164l.291,1.206a.625.625,0,0,0,.79-.042c0-.665-.125-1.83-.125-2.911,0-1.164.125-2.329.125-3.077a.626.626,0,0,0-.79-.042l-.249,1.248c-.166.749-.374.957-.749,1.081a11.577,11.577,0,0,1-2.578.166h-1.788c-.915,0-1,0-1-.873v-6.113c0-1.164,0-1.206.915-1.206h2.2a17.216,17.216,0,0,1,2.953.166c1.58.416,1.871,1.456,2.329,2.911a.623.623,0,0,0,.749-.042,30.871,30.871,0,0,0-.5-4.076c-.374.083-2.163.083-4.117.083H610.01c-1.248,0-2.287-.042-3.618-.083-.166.083-.25.624-.042.749l.5.042c1.788.208,1.872.665,1.872,3.826V552.3c0,3.2-.166,3.66-1.872,3.826l-1,.083c-.166.166-.125.665.042.749,1.788-.042,2.828-.083,4.159-.083H612.8c2.7,0,5.448.042,8.193.083a24.165,24.165,0,0,0,1.372-4.242A.649.649,0,0,0,621.571,552.545Z" transform="translate(-311.133 -82.796)" fill="#464e7d"/><path d="M671.081,536.7c-.79.042-1.664.083-2.828.083-.956,0-1.788-.042-2.911-.083-.25.125-.291.457-.042.749l.873.042c.624.042,1,.291,1,.707a16.96,16.96,0,0,1-.915,2.786c-.208.541-1.83,4.616-2.454,6.072-.873,2.162-1.788,4.283-2.745,6.446-1-2.329-2.079-4.616-3.119-6.945a2.008,2.008,0,0,1-.208-.749,2.561,2.561,0,0,1,.291-.749c.457-1.081,1.747-3.7,2.37-4.866.665-1.248,1.206-2.62,2.5-2.7l.873-.042c.166-.25.166-.624-.042-.749-.707.042-1.913.083-2.911.083-1.123,0-2.038-.042-2.869-.083-.208.083-.291.416-.042.749l.915.042c.957.042,1.123.416.042,2.994-.665,1.663-1.206,2.786-1.788,3.992-.873-1.871-1.705-3.826-2.329-5.323-.582-1.372-.541-1.58.624-1.663l.79-.042c.166-.25.166-.624-.042-.749-.707.042-1.83.083-3.369.083-1.206,0-2.371-.042-3.244-.083a.464.464,0,0,0-.042.749l.749.042c1.04.083,1.5.749,1.955,1.663,1.164,2.454,2.287,4.866,3.369,7.319a2.284,2.284,0,0,1,.249.79,4.828,4.828,0,0,1-.5,1.248c-.79,1.705-1.622,3.41-2.329,4.949-1.788-3.743-3.576-7.569-5.282-11.353a22.93,22.93,0,0,1-1.58-4.076c0-.291.374-.458,1-.5l.707-.042c.166-.208.208-.624-.042-.749-1.081.042-2.62.083-3.493.083-.956,0-2.329-.042-3.161-.083a.494.494,0,0,0-.083.749l.749.042c1.289.125,1.663.956,2.246,2.2,2,4.242,3.868,8.484,5.822,12.726.416.873,1.58,3.618,2.121,4.907a1.767,1.767,0,0,0,.457.083.83.83,0,0,0,.374-.083,82.251,82.251,0,0,1,3.826-8.65c.956,2.121,2.7,5.947,3.7,8.65a1.477,1.477,0,0,0,.416.083.83.83,0,0,0,.374-.083c1.248-3.244,2.454-6.238,3.826-9.357l2.246-5.157c1.83-4.242,2.121-5.157,3.618-5.323l.582-.042C671.33,537.2,671.33,536.783,671.081,536.7Z" transform="translate(-331.656 -82.796)" fill="#464e7d"/><path d="M734.43,536.7c-1.206.042-2.246.083-3.493.083-1.289,0-2.329-.042-4.076-.083-.166.083-.25.624-.042.749l.749.042c1.788.166,2.121.5,2.121,3.909v11.52c0,1.663-.083,6.238-.79,7.652a1.307,1.307,0,0,1-1.206.79,4.639,4.639,0,0,1-1.289-.208,3.677,3.677,0,0,0-1.123-.166c-.624,0-1.081.873-1.081,1.414,0,.624.956.624,1.331.624a6.6,6.6,0,0,0,5.989-4.408,16.83,16.83,0,0,0,.707-5.906V541.4c0-3.244.042-3.66,1.871-3.909l.457-.042C734.68,537.324,734.638,536.783,734.43,536.7Z" transform="translate(-380.326 -82.796)" fill="#464e7d"/><path d="M765.871,552.545a7.614,7.614,0,0,1-2.163,2.953c-.665.333-1.539.457-3.909.457-2.7,0-3.327-.333-3.7-.707-.5-.5-.582-1.539-.582-3.161V547.8c0-.79.083-.832,1-.832H758.3a9.468,9.468,0,0,1,2.329.166,1.331,1.331,0,0,1,.956,1.164l.291,1.206a.625.625,0,0,0,.79-.042c0-.665-.125-1.83-.125-2.911,0-1.164.125-2.329.125-3.077a.626.626,0,0,0-.79-.042l-.249,1.248c-.166.749-.374.957-.749,1.081a11.578,11.578,0,0,1-2.578.166h-1.788c-.915,0-1,0-1-.873v-6.113c0-1.164,0-1.206.915-1.206h2.2a17.218,17.218,0,0,1,2.953.166c1.58.416,1.871,1.456,2.329,2.911a.623.623,0,0,0,.749-.042,30.861,30.861,0,0,0-.5-4.076c-.374.083-2.163.083-4.117.083H754.31c-1.248,0-2.287-.042-3.618-.083-.166.083-.25.624-.042.749l.5.042c1.788.208,1.871.665,1.871,3.826V552.3c0,3.2-.166,3.66-1.871,3.826l-1,.083c-.166.166-.125.665.042.749,1.788-.042,2.828-.083,4.159-.083H757.1c2.7,0,5.448.042,8.193.083a24.154,24.154,0,0,0,1.372-4.242A.649.649,0,0,0,765.871,552.545Z" transform="translate(-395.423 -82.796)" fill="#464e7d"/><path d="M809.989,556.6a3.627,3.627,0,0,1-2.121-.873c-2.079-1.747-3.7-4.159-6.113-8.109-.166-.249-.291-.541-.166-.748,1.539-.624,3.826-2.2,3.826-5.074a4.628,4.628,0,0,0-2.537-4.284,10.965,10.965,0,0,0-5.074-.915c-2.994,0-5.074.083-6.82.25a.5.5,0,0,0-.042.749l.956.125c1.248.166,1.331.665,1.331,3.576v10.938c0,3.2-.042,3.618-1.83,3.826l-.749.083c-.166.208-.125.665.042.749,1.414-.042,2.537-.083,3.826-.083,1.206,0,2.246.042,3.618.083.166-.083.25-.624.042-.749l-.624-.083c-1.788-.25-1.83-.624-1.83-3.826v-3.826c0-.624.042-.665,1.414-.665a2.186,2.186,0,0,1,2.163.957c.956,1.372,2.2,3.493,2.994,4.616,2.163,3.077,3.7,3.826,6.321,3.826a3.553,3.553,0,0,0,1.331-.166A.2.2,0,0,0,809.989,556.6Zm-8.9-10.563a5.141,5.141,0,0,1-3.161.79c-1.539,0-2-.042-2.121-.166a2.608,2.608,0,0,1-.083-1v-7.153c0-.873.083-.956,2-.956a4.49,4.49,0,0,1,4.866,4.7C802.628,544.335,801.921,545.417,801.09,546.04Z" transform="translate(-419.08 -82.737)" fill="#464e7d"/><path d="M843.317,545.365l-2.454-1.539c-1.123-.707-2.578-2-2.578-3.743,0-1.414.624-3.368,3.618-3.368,2.911,0,3.743,2,4.159,3.452a.627.627,0,0,0,.748-.083,13.99,13.99,0,0,0-.541-3.7,4.021,4.021,0,0,1-1.081-.166,11.875,11.875,0,0,0-2.828-.416c-3.951,0-6.238,2.329-6.238,5.24,0,2.5,1.788,4.242,3.285,5.24l2.911,1.872a4.516,4.516,0,0,1,2.5,4.283c0,1.83-1.248,3.493-3.826,3.493-3.535,0-4.782-2.994-5.24-4.533-.125-.166-.582-.125-.749.083a13.428,13.428,0,0,0,.832,4.284,9.583,9.583,0,0,0,4.741,1.123c3.951,0,6.488-2.287,6.488-5.656C847.1,548.318,845.23,546.571,843.317,545.365Z" transform="translate(-445.047 -82.27)" fill="#464e7d"/><path d="M883.071,552.545a7.612,7.612,0,0,1-2.163,2.953c-.665.333-1.539.457-3.909.457-2.7,0-3.327-.333-3.7-.707-.5-.5-.582-1.539-.582-3.161V547.8c0-.79.083-.832,1-.832H875.5a9.467,9.467,0,0,1,2.329.166,1.331,1.331,0,0,1,.956,1.164l.291,1.206a.625.625,0,0,0,.79-.042c0-.665-.125-1.83-.125-2.911,0-1.164.125-2.329.125-3.077a.626.626,0,0,0-.79-.042l-.25,1.248c-.166.749-.374.957-.749,1.081a11.576,11.576,0,0,1-2.578.166h-1.788c-.915,0-1,0-1-.873v-6.113c0-1.164,0-1.206.915-1.206h2.2a17.217,17.217,0,0,1,2.953.166c1.58.416,1.871,1.456,2.329,2.911a.623.623,0,0,0,.749-.042,30.867,30.867,0,0,0-.5-4.076c-.374.083-2.162.083-4.117.083H871.51c-1.248,0-2.287-.042-3.618-.083-.166.083-.25.624-.042.749l.5.042c1.788.208,1.871.665,1.871,3.826V552.3c0,3.2-.166,3.66-1.871,3.826l-1,.083c-.166.166-.125.665.042.749,1.788-.042,2.828-.083,4.159-.083H874.3c2.7,0,5.448.042,8.193.083a24.159,24.159,0,0,0,1.372-4.242A.649.649,0,0,0,883.071,552.545Z" transform="translate(-463.883 -82.796)" fill="#464e7d"/><path d="M920.731,536.7c-1.04.042-1.871.083-2.828.083s-1.83-.042-2.911-.083a.466.466,0,0,0-.042.749l.541.042c.749.083,1.289.291,1.289.5a25.668,25.668,0,0,1-2,4.034c-.915,1.788-1.913,3.535-2.869,5.157-1.206-2.121-2.329-4.533-3.452-6.779a13.751,13.751,0,0,1-.956-2.329c0-.25.208-.416,1.289-.541l.416-.042c.166-.166.166-.665-.083-.748-.749.042-1.872.083-3.244.083-1.456,0-2.578-.042-3.535-.083a.524.524,0,0,0-.041.748l.873.166c.915.166,1.372.291,2.412,2.329l3.618,7.028a6.214,6.214,0,0,1,.956,3.784v1.539c0,3.244-.042,3.7-1.83,3.868l-.956.083c-.166.166-.125.665.042.749,1.622-.042,2.7-.083,3.992-.083,1.206,0,2.246.042,4.159.083a.565.565,0,0,0,.042-.749l-1.164-.083c-1.663-.125-1.83-.624-1.83-3.868v-1.58c0-2.329.083-2.62,1.414-4.949l1.913-3.327c1.539-2.62,2.454-4.533,4.034-4.824l.873-.166Z" transform="translate(-484.284 -82.796)" fill="#464e7d"/><path d="M142.9,405.5h0Z" transform="translate(-40.772 -6.158)" fill="#464e7d"/><path d="M175.186,429.331c.416-.125.749-.249,1.081-.374a6.283,6.283,0,0,1,2.5-.79c.956,0,1.248,1.04,1.663,1.913a3.618,3.618,0,0,0,1.747,2.163h.083a.229.229,0,0,0,.208-.125.174.174,0,0,0-.125-.25,3.181,3.181,0,0,1-1.539-1.955c-.416-.956-.832-1.913-2.038-1.913a7.144,7.144,0,0,0-2.62.582c-.333.125-.665.25-1.04.374a.185.185,0,0,0-.125.25A.14.14,0,0,0,175.186,429.331Z" transform="translate(-59.501 -19.301)" fill="#464e7d"/><path d="M152.841,433.478l-.541.457c3.743-.125,5.2-1.164,5.2-1.164a1.943,1.943,0,0,1-.582.166,4.474,4.474,0,0,0,.5-2.038c-.083,0-.749,1.663-1.04,2.163-.208.042-.457.083-.707.125a4.474,4.474,0,0,0,.5-2.038c-.083,0-.749,1.539-1.04,2.121-.25.042-.5.042-.707.083a5.665,5.665,0,0,0,.457-2c-.083,0-.707,1.456-1,2.038C153.3,433.437,152.882,433.478,152.841,433.478Z" transform="translate(-46.263 -20.995)" fill="#464e7d"/><path d="M174.357,440.636a.153.153,0,0,0,.125-.042.205.205,0,0,0,.042-.291.917.917,0,0,1-.25-.624,3.348,3.348,0,0,1,1.123-2.537l.208-.208c.083-.083-.042-.166-.083-.083l-.208.208a3.477,3.477,0,0,0-1.414,2.62,1.219,1.219,0,0,0,.333.873C174.274,440.594,174.316,440.636,174.357,440.636Z" transform="translate(-58.88 -24.451)" fill="#464e7d"/><path d="M201.438,433.633h0a.281.281,0,0,0,.249-.166.228.228,0,0,0-.166-.25c-1.456-.25-3.951-2.7-4.034-2.62s.416.707.624.915A5.49,5.49,0,0,0,201.438,433.633Z" transform="translate(-72.653 -20.817)" fill="#464e7d"/><path d="M209.441,443.141a.2.2,0,0,0,.208-.208,9.218,9.218,0,0,0-1.456-4.034c-.083.042,1.04,2.578,1.04,4.034A.2.2,0,0,0,209.441,443.141Z" transform="translate(-78.91 -25.667)" fill="#464e7d"/><path d="M130.162,437.917c.042,0,.125,0,.125-.042a8.646,8.646,0,0,1,3.285-2.079c.166-.083.333-.166.541-.25a2.543,2.543,0,0,1,.5-.208c1.331-.582,2.329-1.123,2.578-2.7,0-.125-.125-.166-.166-.042-.208,1.372-1.331,1.83-2.62,2.37a2.09,2.09,0,0,1-.541.208c-.166.083-.374.166-.541.249a9.822,9.822,0,0,0-3.41,2.163.2.2,0,0,0,0,.291A.906.906,0,0,1,130.162,437.917Z" transform="translate(-33.149 -21.941)" fill="#464e7d"/><path d="M134.831,400.933a.928.928,0,0,0-1.081.333h-.042l-.042.083-.042.083a.574.574,0,0,0-.125.166.041.041,0,0,0,.042-.042l-.042.042s.541.457.79.042c.042-.125.166-.25,0-.333a1.057,1.057,0,0,0-.291-.083C134.207,400.85,134.831,400.933,134.831,400.933Z" transform="translate(-35.281 -3.463)" fill="#464e7d"/><path d="M133.675,406.8h0a4.8,4.8,0,0,0-1.081-1.913c.5.25,1.372.873,1.456.873h0a11.617,11.617,0,0,0-1.539-1.165c.042,0,1.747.458,1.788.416a.041.041,0,0,0,.042-.042,17.011,17.011,0,0,0-1.913-.665,1.186,1.186,0,0,0-.333.582C132.8,405.257,133.591,406.8,133.675,406.8Z" transform="translate(-34.458 -5.457)" fill="#464e7d"/><path d="M142.593,403.483a4.109,4.109,0,0,0-.208-1.955,5.052,5.052,0,0,0-1.164-1.331c.166.416.416,1.289.582,1.622.25.541.665.915.624,1.622-.042.749-.749,1.123-1.248,1.747-.083.083-2.953,2-2.537,4.45a2.486,2.486,0,0,0,1.206,1.955c.125.083.083-.042,0-.083-.166-.083-.624-.749-.333-1.955a10.422,10.422,0,0,1,1.955-4.034C141.886,404.855,142.551,404.4,142.593,403.483Z" transform="translate(-38.261 -3.06)" fill="#464e7d"/><path d="M136.149,406.639a.239.239,0,0,0,.083-.291c-.042-.125-.166-.125-.291-.083a8.166,8.166,0,0,0-3.951,5.365c-.042.125.125.125.166.042A7.682,7.682,0,0,1,136.149,406.639Z" transform="translate(-34.396 -6.591)" fill="#464e7d"/><path d="M136.319,408.893a14.507,14.507,0,0,0,1.456-1.331,1.81,1.81,0,0,0,.707-1.663c-.125-.541-.707-.416-.915-.416.166,0,.582.083.541.5a11.955,11.955,0,0,1-2.329,2.163,5.372,5.372,0,0,0-2.038,3.743c-.166,1.58.166,2.5.915,2.662h.042C132.909,412.677,135.238,409.766,136.319,408.893Z" transform="translate(-35.398 -6.141)" fill="#464e7d"/><path d="M144.117,417.776c.042.083.166.125.083.042-1.331-2.163,1.705-5.573,1.705-5.614a.206.206,0,0,0-.291-.291C145.489,412.037,142.661,415.322,144.117,417.776Z" transform="translate(-41.24 -9.867)" fill="#464e7d"/><path d="M133.059,398.884c.125,0,.208.083.208,0a.2.2,0,0,0-.208-.208,3.928,3.928,0,0,0-2.911.707,8.4,8.4,0,0,0-1.248.582s1.206-.166,1.5.042A3.215,3.215,0,0,1,133.059,398.884Z" transform="translate(-32.594 -2.162)" fill="#464e7d"/><path d="M140.291,399.2a.7.7,0,0,1,.749.208c.416.624.083,1.58-.873,1.206a1.049,1.049,0,0,0,.624.208c.374,0,1.164-.541.582-1.622a1.028,1.028,0,0,0-1.206-.374.228.228,0,0,0-.166.249A.449.449,0,0,0,140.291,399.2Z" transform="translate(-39.078 -2.228)" fill="#464e7d"/><path d="M129.534,419.22a.6.6,0,0,0,.083-.125h0c.083-.042.333-.042.457-.208.374-.541,1.747-1.164,1.955-1.372.166-.166-.208-.915-.333-1.372-.125-.416-.291-.873-.333-1.081a6.843,6.843,0,0,0-.291-.832,9.338,9.338,0,0,1-.665-2.163.318.318,0,0,0-.083-.208,2.329,2.329,0,0,0-1.081-.5,6.59,6.59,0,0,1-3.493-2.412c-.915-1.664-1.123-2.038-2.37-2.87-.208-.125-.457-.291-.707-.457-.083-.042-.125-.125-.208-.208,2.869-.042,5.032-.832,6.072-2.246a2.875,2.875,0,0,0,.457-2.745c-1.539-4.242-13.973,1.913-16.635.873-.541-.707-1.206-1.913-2.246-2.329-1.289-.541-1.83-.333-1.83-.333a2.454,2.454,0,0,0-1.663.042,1.42,1.42,0,0,0,.374,1.663,1.314,1.314,0,0,0,.333,1.164c3.784,4.034,17.841-2.87,18.132-.125a.7.7,0,0,1-.166.624c-.333.416-1.414,1.5-4.824,1.539a6.619,6.619,0,0,0-4.117.042,14.452,14.452,0,0,1-3.327.707,13.245,13.245,0,0,1-6.737-1.5,9.677,9.677,0,0,0-.915-5.531,4.579,4.579,0,0,0-4.575-2.287,1.5,1.5,0,0,0-1,.707,3.878,3.878,0,0,0-1.705-.042,3.048,3.048,0,0,0-1,.873c-2.745-.374-3.036-.25-3.119-.166a.93.93,0,0,0-.166.832l.208.457-.291.665c-.125.416-.125.915.291,1.081a.527.527,0,0,0,.25.042,1.575,1.575,0,0,0,.333.5l.083-.5c.083.249.416,0,.416,0a1.575,1.575,0,0,0,.333.5l.083-.5c.083.249.416,0,.416,0a1.575,1.575,0,0,0,.333.5l.083-.5c.042.083.083.083.125.042a1.579,1.579,0,0,1,.25.749c-1-.083-2.412-.125-2.7.208-.416.457-.125,2.079-.083,2.121a.265.265,0,0,0,.25,0,2.511,2.511,0,0,1,1.747-.166c.083,0,.25.042.416.042a8.932,8.932,0,0,0-.707,2.5,10.687,10.687,0,0,1-1.456.25c-.915-.083-1.5-.458-1.913-.374a8.388,8.388,0,0,1-1.955-.624,7.768,7.768,0,0,0-3.535-2.828l-1.331-.333H85.41l-.541-.125-.042.083.333.166v.125a4.184,4.184,0,0,0-.166.749l-.541-.208-.042.083.25.166a.591.591,0,0,0-.083.25,2.644,2.644,0,0,0,0,1h-.042l-.291-.083-.042.083.208.166a.527.527,0,0,0,.042.25,1.131,1.131,0,0,0,.749.707c.457.166,1.164.208,1.248.291a2.547,2.547,0,0,0,1.622.79c.166.416.457,1,.457,1a.325.325,0,0,0,.166.166c.042.042.957.5,1.164.624a14.411,14.411,0,0,1,1.539,1.081.153.153,0,0,0,.125.042l5.448,1.747a3.226,3.226,0,0,0,1.206,1.04l-3.909,3.618c-.042.042-.083.083-.083.125a3.125,3.125,0,0,1-1.663,1.58c-.665.25-.957.208-1.164.083a.145.145,0,0,1-.083-.042.91.91,0,0,0-.208-.125,1.4,1.4,0,0,0-.5-.166h-.125a2.262,2.262,0,0,0-1.248,1.248,1.658,1.658,0,0,0,.166,1.456.707.707,0,0,0,.25.25H73.1l1.164,1.123c2.62,2.537,3.992,6.2,3.992,10.563,0,7.486.166,36.43.166,36.68-.042,1.206-.083,11.728,9.066,15.6,2.662,1.123,5.49,2.038,8.276,2.911,5.531,1.747,10.771,3.41,12.6,6.363l.582.915.582-.915c1.83-2.953,7.028-4.616,12.6-6.363,2.745-.873,5.614-1.788,8.234-2.911,9.149-3.868,9.066-14.431,9.066-15.6,0-.291.166-29.194.166-36.721,0-4.367,1.372-8.026,3.992-10.563l1.164-1.123H129.617C129.534,419.262,129.534,419.22,129.534,419.22Zm-5.282,7.444-1.414-.79-1.414.79.333-1.58L120.551,424l1.622-.166.665-1.456.665,1.456,1.58.166-1.206,1.081Zm-14.264-.624-1.414-.79-1.414.79.333-1.58-1.206-1.081,1.58-.166.665-1.456.665,1.456,1.622.166-1.206,1.081Zm-14.6.624-1.414-.79-1.414.79.333-1.58L91.689,424l1.622-.166.665-1.456.665,1.456,1.622.166-1.206,1.081Zm13.557,1.622a259.616,259.616,0,0,1,27.988,1.788c0,.291-.042.582-.042.873,0,10.064-.042,26.616-.125,37.221-.374,8.692-5.24,12.227-12.393,14.306-5.905,1.705-11.6,3.036-15.512,6.654-3.868-3.618-9.607-4.949-15.512-6.654C86.2,480.4,81.334,476.86,80.96,468.169c-.083-10.6-.125-27.156-.125-37.221a6.143,6.143,0,0,0-.042-.873A258.151,258.151,0,0,1,108.948,428.286Zm4.283-16.136c.083-.042.125-.083.208-.083a5.048,5.048,0,0,0,.665.541c.042-.042-.208-.416-.457-.665.125-.042.208-.125.333-.166a4.936,4.936,0,0,0,.832.665,2.265,2.265,0,0,0-.582-.79c.083-.042.208-.125.291-.166.25.166.915.832.957.79a2.336,2.336,0,0,0-.749-.915h0c.291-.125.541-.291.832-.416,2,0,2.5.832,2.329,1.539a5.442,5.442,0,0,0-1.663,1.705,4.565,4.565,0,0,0-.333,2,1.356,1.356,0,0,1-1.123.416,5.176,5.176,0,0,0-2.578,1.123,2.544,2.544,0,0,0-.25.166,2.506,2.506,0,0,0-.873.79,2.842,2.842,0,0,1-1.663.166.717.717,0,0,1,.166-.125.214.214,0,1,0-.208-.374.837.837,0,0,0-.374.457c-.416.166-.457.083-.541.042a.574.574,0,0,0-.166-.125,1.5,1.5,0,0,1,.166-.208.257.257,0,0,0,.083-.291.194.194,0,0,0-.291-.042.867.867,0,0,0-.374.5.826.826,0,0,1-.333,0,1.208,1.208,0,0,1,.125-.79,1.613,1.613,0,0,1,1.123-.749c.333.25.665,0,1.164,0a3.653,3.653,0,0,0,2.662-.915,1.658,1.658,0,0,1,.541-.291c.374-.125.915-.333.915-.956A8.061,8.061,0,0,0,113.232,412.151Zm-1.871,7.111h0c.125-.042.208-.083.25-.208a1.68,1.68,0,0,1,.707-.624c.125-.083.208-.125.333-.208.457-.374,1.58-1.331,2.038-1.331a2.931,2.931,0,0,0,1.913-.416c.042-.083.083-.125.042-.208a3.37,3.37,0,0,1,.25-1.747,4.783,4.783,0,0,1,1.58-1.58c.291-.208.5-.749.832-1.081l.125.125.042.042a4.385,4.385,0,0,0,.333.541c.042.042.083.042.125.083l.457.166a3.024,3.024,0,0,0,1.955,1.164.979.979,0,0,0,.333.083c.25.083.832.125,1.747.25.873.083,2,.208,2.87.374,1.372.25,1.539.5,1.539.541.042.083.042.208.083.291.083.333.208.665.083.915-.125.208-.416.333-.915.457-.125.042-.208-.042-.374-.125a1.088,1.088,0,0,0-.832-.166,1.909,1.909,0,0,0-1.206,1,1.462,1.462,0,0,0-.042,1.248.089.089,0,0,0,.083.083.129.129,0,0,0,.042.083c.042.042.042.125.083.166H111.36Zm7.111-9.108h0c.083,0,.125,0,.166.042A.25.25,0,0,0,118.472,410.154Zm-22.5-2.37c.042.042.042.083.083.125a.938.938,0,0,1-.208-.457c.042.125.083.208.125.333a.909.909,0,0,0-.125-.208A.909.909,0,0,1,95.973,407.784Zm-2.7-2.37h0Zm-3.41,12.393a1.543,1.543,0,0,1,.749-.79c.042,0,.083.042.125.042s.083.042.125.083H90.9c.416.249.624.166,1.705-.25,0,0,.832-.541,1.5-1a2.307,2.307,0,0,0,.333-.25,5.2,5.2,0,0,0,.416-.374c.5-.457,3.784-3.452,5.448-4.907.333-.291.707-.582,1.04-.873,1-.79.873-1.331.832-1.206a12.419,12.419,0,0,1-.957.832c-.333.291-1.04.416-1.372.707-.208.166-.416.374-.665.582a4.165,4.165,0,0,1-1.663-1.456l-.416-1.331a3.678,3.678,0,0,1,0-.957c.042-.291.125-1-.25-.873a18.061,18.061,0,0,0-.291,3.244s-4.99-.915-5.282-1.622a18.127,18.127,0,0,0-2.2-1.289c-.125-.249-.333-.707-.457-1V405a.528.528,0,0,1,.125-.582.185.185,0,0,0,0-.208c-.042-.083-.083-.125-.166-.125,0,0-1.456-.208-1.747-1.081-.042-.125-.125.083-.083.208a1.956,1.956,0,0,0,1.5,1.248c-.042.125-.042.208-.083.333-.042,0-.083,0-.083.042l-.042.042a1.805,1.805,0,0,1-1.123-.083.575.575,0,0,1-.166-.125c-.125-.374-.25-.956.083-.915.125,0-.042-.208-.125-.25a.2.2,0,0,0-.25.125l-.083.5h-.083a2.145,2.145,0,0,1-1.04-.042c-.042-.042-.291-.166-.333-.333s0-.25.042-.25a2.367,2.367,0,0,0,.541.291c.042,0,.042.042.083.042.083,0,.166-.042.166-.125a.276.276,0,0,0-.083-.291s-.957-.25-.707-.79c0,0,.707.374,1.081.541h.083a.229.229,0,0,0,.208-.125.185.185,0,0,0-.125-.25c-.5-.208-1.206-.79-.624-1.081l.915.25a6.589,6.589,0,0,1,3.493,2.537l.125.125a7.584,7.584,0,0,0,2,.873h.333c.166.083.79,1.248,1.164,1.123.416-.083,2.5,1.539,2.5,1.539,0-.042-.042-.042-.042-.083.042.042.166.042.083-.042-.957-.873.291-3.743,1.206-5.656a1.561,1.561,0,0,0,.582-.208c.125-.125.166-.166.208-.166.208-.208.457-.125.582.208a.783.783,0,0,0-.166-.541.493.493,0,0,0-.374-.208.916.916,0,0,0-.665.374,4.137,4.137,0,0,1-1.622.083,3.028,3.028,0,0,0-1.705.083,3.293,3.293,0,0,1,0-1.289,9.574,9.574,0,0,1,2.412.166.313.313,0,0,0,.291-.208c.042-.208.042-1.539-.125-1.539-.291,0-1.663-.083-1.663-.083a3.7,3.7,0,0,1-.915-.042.614.614,0,0,1,.042-.457v-.042l.125-.707v-.042c.042,0,.624-.541.749-.582.166-.042.457,0,.665-.291.416.042.873.083,1.289.125a.3.3,0,0,0,.25-.125,2.317,2.317,0,0,1,.873-.749,4.352,4.352,0,0,1,1.622-.083.378.378,0,0,0,.291-.125.782.782,0,0,1,.707-.333,5.12,5.12,0,0,1,3.868,2.121c1.164,1.58,1.04,4.159.915,5.24-.083.416-.333,1.539-.624,2.5a14.093,14.093,0,0,1-.79,1.871,7.977,7.977,0,0,0-.749,1.913c-.042.125.042.208.166.25h.042a.212.212,0,0,0,.208-.166c0-.042.042-.083.042-.166.291.416,1.081,1.081,1.123,1,.042-.042-.749-1-1-1.414.042-.166.125-.333.166-.541.291.416,1.081,1.081,1.123,1,.042-.042-.707-.956-1-1.414.083-.166.125-.374.208-.541.333.416,1.081,1.04,1.123.957.042-.042-.665-.915-.957-1.372.749-1.705,1.871-3.577,3.161-2.828a10.342,10.342,0,0,0,5.282,1.248h.166a10.909,10.909,0,0,0-2.038,1.289c-.083.083.083.166.125.125a19.9,19.9,0,0,1,6.612-2.745c.042,0,.083-.042.125-.083a3.5,3.5,0,0,1,2.163-.042c.042,0,.083.042.125.042,2.87,0,4.7-.457,5.406-1.331a1.378,1.378,0,0,0,.291-1.206,1.434,1.434,0,0,0-.582-.873c-1.081-.665-3.493-.25-8.317,1.081a30.786,30.786,0,0,1-5.406.707c-4.076.083-4.283-.956-4.491-1.747a6.645,6.645,0,0,0,1.164.873c.125-.208-1.747-2.079-1.747-2.079s1.788,1.206,1.83,1.164c.125-.291-1.248-1.206-1.414-1.414a17.281,17.281,0,0,0,1.955,1c.208-.249-1.248-1.04-1.248-1.04a4.625,4.625,0,0,1,4.034,2.412c0,.042.333,1,6.654-.624,6.654-1.747,9.357-1.747,9.9-.125A2.137,2.137,0,0,1,128,402.71c-.541.749-2.079,2.038-6.072,1.955a.375.375,0,0,0-.333.5,2.228,2.228,0,0,0,.665,1c.25.166.5.333.707.5a6.184,6.184,0,0,1,2.537,2.62,6.151,6.151,0,0,0,3.535,2.745,3.791,3.791,0,0,1,.665.249,15.282,15.282,0,0,0,.665,2.2,3.058,3.058,0,0,1,.25.749,8.689,8.689,0,0,0,.374,1.123c.125.416.291.832.333,1.04a5.975,5.975,0,0,1-1.539.873,1.83,1.83,0,0,0-.5.25,1,1,0,0,0-.374.333c-.042.042-.083.083-.083.125a1.13,1.13,0,0,1-.374,0,.375.375,0,0,1-.208-.042.915.915,0,0,1,.042-.333.2.2,0,0,0-.374-.125,1.543,1.543,0,0,0-.083.582,1.819,1.819,0,0,1-.873-.125.452.452,0,0,1,.042-.208.2.2,0,1,0-.374-.125.708.708,0,0,0-.042.291h-.333v-.042c-.042-.042-.042-.125-.125-.208a.767.767,0,0,1,.042-.624,1.214,1.214,0,0,1,.749-.624c.083-.042.166,0,.374.083a1.247,1.247,0,0,0,.832.166c.707-.125.749-.582.956-.957.291-.5.541-.832.416-1.289-.042-.083-.042-.166-.083-.25-.208-.79-1.788-1.081-4.99-1.414a13.33,13.33,0,0,1-1.622-.208.979.979,0,0,0-.333-.083,2.3,2.3,0,0,1-1.622-1c-.042-.083-.083-.125-.166-.125l-.457-.166c-.083-.083-.166-.208-.25-.291a.591.591,0,0,0-.083-.25,1.282,1.282,0,0,1-.374-.749,1.012,1.012,0,0,0-1.123-.873,13.2,13.2,0,0,0-5.531,1.705h0a.041.041,0,0,0-.042.042c-.042,0-.083,0-.083.042-4.076,1.913-6.612,2.287-8.525,1.622a7.961,7.961,0,0,0,1.456-1.331c.582-.624.79-1.248,1.913-1.123a.64.64,0,0,1,.333.083c.208,0-.083-.291-.291-.374-1.414-.416-1.871.291-2.454.957a11.827,11.827,0,0,1-1.913,1.83.375.375,0,0,0-.208.042c-.457.25-1.164.5-1.871.79-.25.083-.374.374-.582.541-.042,0-.083.042-.125.042a19.061,19.061,0,0,0-2.246,1,8.715,8.715,0,0,0-1.788,1.164,2.455,2.455,0,0,0-1.539.416,3.073,3.073,0,0,0-.582,1.456c-.374.042-.707.083-.915.083a.983.983,0,0,0-.541.083c-.208.125-.291.166-.915-.125a.6.6,0,0,1,.083-.374.214.214,0,1,0-.374-.208,1.727,1.727,0,0,0-.125.541.915.915,0,0,1-.832-.042.089.089,0,0,1-.083-.083,1.306,1.306,0,0,1,.042-.374c.042-.125-.042-.208-.166-.25s-.208.042-.25.166a2.078,2.078,0,0,0-.042.457c-.042,0-.125.042-.166.042v-.042A.943.943,0,0,1,89.86,417.807Zm4.741,1.331a.321.321,0,0,0,.291-.333,1.268,1.268,0,0,1,.416-.915,1.751,1.751,0,0,1,1.164-.291.6.6,0,0,0,.291-.083,11.117,11.117,0,0,1,3.743-2.412,10.153,10.153,0,0,0,1-.416c.624-.25,1.206-.457,1.622-.665,2.079.873,5.531.166,9.773-1.788h.125a8.406,8.406,0,0,1,.374,2.662c0,.125-.042.166-.457.291a1.54,1.54,0,0,0-.873.541,3.137,3.137,0,0,1-2.079,1.04,1.172,1.172,0,0,1-.873-.291.472.472,0,0,0-.333-.125,2.423,2.423,0,0,0-1.788,1.123,1.81,1.81,0,0,0-.166,1.414.5.5,0,0,0,.291.291c.042,0,.083.042.125.042H93.852A5.146,5.146,0,0,0,94.6,419.137Z" transform="translate(0 0)" fill="#464e7d"/><path d="M156.3,568.708a2.2,2.2,0,1,0-2.2-2.2A2.166,2.166,0,0,0,156.3,568.708Z" transform="translate(-47.313 -98.918)" fill="#464e7d"/><path d="M157.623,550.465l.956-5.365H156.5l1,5.365Z" transform="translate(-48.716 -87.702)" fill="#464e7d"/><path d="M157.623,530.7H157.5l-1,5.365h2.079Z" transform="translate(-48.716 -79.291)" fill="#464e7d"/><path d="M166.053,546.549l-1.913-.749-1.04,5.323.125.042Z" transform="translate(-52.572 -88.111)" fill="#464e7d"/><path d="M166.1,537.816l1.955.749,1-5.323-.125-.042Z" transform="translate(-54.324 -80.751)" fill="#464e7d"/><path d="M166.883,554.3l4.325-3.285L169.67,549.6l-2.869,4.616Z" transform="translate(-54.733 -90.331)" fill="#464e7d"/><path d="M174.8,543.885l1.539,1.372,2.87-4.575-.083-.083Z" transform="translate(-59.406 -85.074)" fill="#464e7d"/><path d="M173.867,556.2l-4.367,3.244.083.125,5.2-1.5Z" transform="translate(-56.31 -94.186)" fill="#464e7d"/><path d="M186.6,551.9l-5.2,1.5.915,1.871,4.367-3.285Z" transform="translate(-63.261 -91.675)" fill="#464e7d"/><path d="M176.04,564.5l-5.24,1.456.042.166,5.406.457Z" transform="translate(-57.069 -99.035)" fill="#464e7d"/><path d="M185,564.4l.166,2.079,5.24-1.456V564.9Z" transform="translate(-65.364 -98.976)" fill="#464e7d"/><path d="M175.948,572.841l-5.406-.541-.042.125,4.866,2.412Z" transform="translate(-56.894 -103.591)" fill="#464e7d"/><path d="M183.7,576l5.406.541.042-.125L184.282,574Z" transform="translate(-64.605 -104.584)" fill="#464e7d"/><path d="M168.7,576.283l3.66,4.034,1.248-1.663-4.824-2.454Z" transform="translate(-55.843 -105.869)" fill="#464e7d"/><path d="M178.8,584.664l4.824,2.454.083-.125L180.048,583Z" transform="translate(-61.742 -109.841)" fill="#464e7d"/><path d="M165.683,579.2l-.083.083,1.955,5.032,1.788-1.081Z" transform="translate(-54.032 -107.621)" fill="#464e7d"/><path d="M171.1,591.281l3.66,4.034.083-.042-1.955-5.074Z" transform="translate(-57.245 -114.047)" fill="#464e7d"/><path d="M161.725,580.9H161.6v5.448l2.079-.374Z" transform="translate(-51.695 -108.614)" fill="#464e7d"/><path d="M161.9,594.974l1.955,5.074h.125V594.6Z" transform="translate(-51.871 -116.617)" fill="#464e7d"/><path d="M152.7,586.074l2.038.374.042-5.448h-.125Z" transform="translate(-46.497 -108.673)" fill="#464e7d"/><path d="M152.3,600.148h.125l1.955-5.074-2.038-.374Z" transform="translate(-46.263 -116.675)" fill="#464e7d"/><path d="M148.26,579.5l-3.66,4.034,1.747,1.081,2-5.032Z" transform="translate(-41.765 -107.797)" fill="#464e7d"/><path d="M139,595.532l.083.083,3.66-4.034L141,590.5Z" transform="translate(-38.494 -114.222)" fill="#464e7d"/><path d="M143.449,576.783l-.083-.083-4.866,2.412,1.248,1.664Z" transform="translate(-38.202 -106.161)" fill="#464e7d"/><path d="M132.06,583.4l-3.66,3.992.083.125,4.866-2.454Z" transform="translate(-32.302 -110.075)" fill="#464e7d"/><path d="M140.648,573.025l-.042-.125-5.406.5.582,2Z" transform="translate(-36.274 -103.941)" fill="#464e7d"/><path d="M126.866,574.5,122,576.912l.042.125,5.406-.541Z" transform="translate(-28.564 -104.876)" fill="#464e7d"/><path d="M134.8,567.179l5.406-.5v-.125l-5.24-1.456Z" transform="translate(-36.041 -99.385)" fill="#464e7d"/><path d="M126.048,564.9l-5.406.457-.042.125,5.24,1.5Z" transform="translate(-27.746 -99.268)" fill="#464e7d"/><path d="M141.54,559.944l-4.325-3.244-.915,1.83,5.2,1.539Z" transform="translate(-36.917 -94.478)" fill="#464e7d"/><path d="M124.4,552.425l4.367,3.244.915-1.83-5.2-1.539Z" transform="translate(-29.966 -91.908)" fill="#464e7d"/><path d="M140.9,551.414l4.283,3.285.125-.083L142.439,550Z" transform="translate(-39.604 -90.565)" fill="#464e7d"/><path d="M132.9,540.983l2.87,4.616,1.539-1.414-4.283-3.285Z" transform="translate(-34.931 -85.249)" fill="#464e7d"/><path d="M148,546.749l2.828,4.616.125-.042-1-5.323Z" transform="translate(-43.751 -88.228)" fill="#464e7d"/><path d="M145.125,533.4l-.125.042,1,5.323,1.955-.749Z" transform="translate(-41.999 -80.868)" fill="#464e7d"/><path d="M130.6,492.959a1.949,1.949,0,0,1,2.038-.208,8.394,8.394,0,0,0,2.786.665h.166a.25.25,0,1,0,0-.5h0a7.3,7.3,0,0,1-2.828-.665,2.38,2.38,0,0,0-2.454.333.253.253,0,0,0,0,.333C130.354,493.084,130.52,493.084,130.6,492.959Z" transform="translate(-33.383 -56.729)" fill="#464e7d"/><path d="M130.545,497.559a1.9,1.9,0,0,1,1.955-.25h.042a9.315,9.315,0,0,0,2.786.665h.166a.25.25,0,0,0,0-.5,7.544,7.544,0,0,1-2.786-.624h-.042a2.38,2.38,0,0,0-2.454.333.253.253,0,0,0,0,.333A.22.22,0,0,0,130.545,497.559Z" transform="translate(-33.325 -59.416)" fill="#464e7d"/><path d="M130.6,502.317a1.978,1.978,0,0,1,2.038-.208,8.179,8.179,0,0,0,2.786.665h.166a.25.25,0,1,0,0-.5,7.883,7.883,0,0,1-2.828-.624,2.38,2.38,0,0,0-2.454.333.253.253,0,0,0,0,.333C130.354,502.4,130.52,502.4,130.6,502.317Z" transform="translate(-33.383 -62.22)" fill="#464e7d"/><path d="M110.791,493.526h.166a8.582,8.582,0,0,0,2.828-.665,1.819,1.819,0,0,1,1.955.25.235.235,0,0,0,.333-.333,2.426,2.426,0,0,0-2.537-.333,7.387,7.387,0,0,1-2.786.624h0a.268.268,0,0,0-.25.25A.389.389,0,0,0,110.791,493.526Z" transform="translate(-21.846 -56.838)" fill="#464e7d"/><path d="M110.85,498.126h.166a8.393,8.393,0,0,0,2.786-.665h.083a1.819,1.819,0,0,1,1.955.25.235.235,0,1,0,.333-.333,2.319,2.319,0,0,0-2.454-.333l-.083.042a7.235,7.235,0,0,1-2.786.624.24.24,0,0,0-.25.249C110.6,498,110.725,498.084,110.85,498.126Z" transform="translate(-21.905 -59.525)" fill="#464e7d"/><path d="M110.85,502.826h.166a8.393,8.393,0,0,0,2.786-.665h.042a1.819,1.819,0,0,1,1.955.249.235.235,0,0,0,.333-.333,2.318,2.318,0,0,0-2.454-.333h-.042a7.388,7.388,0,0,1-2.786.624.24.24,0,0,0-.25.25A.27.27,0,0,0,110.85,502.826Z" transform="translate(-21.905 -62.271)" fill="#464e7d"/><path d="M104.926,499.232a12.345,12.345,0,0,0,5.115-1.414c0,.042.042.042.042.083a.905.905,0,0,0,.624.208h2.454a.905.905,0,0,0,.624-.208l.042-.042c1.456.79,5.282,2.5,8.65.249l.208-.125V487.13l-1.705-.083-.665-.832h0a.041.041,0,0,0-.042-.042.183.183,0,0,0-.208-.042,6.841,6.841,0,0,1-2.62-.083,10.04,10.04,0,0,1-1.04-.333c-1.414-.457-2.745-.832-3.66-.291a2.1,2.1,0,0,0-.873,1.372c-.832-2.121-2.745-1.539-4.45-1a11.461,11.461,0,0,1-1.123.333,5.017,5.017,0,0,1-2.578,0,.183.183,0,0,0-.208.042l-.083.083-.707.832-1.622.083v10.563l.125.125A5.407,5.407,0,0,0,104.926,499.232ZM102.763,487.8v8.567a1.263,1.263,0,0,0,.707.707c.582.291,1.913.665,4.367-.291,1.663-.79,2.745-1,3.2-.624a.607.607,0,0,1,.208.333c-.042,0-.083.042-.125.042,0-.042-.042-.083-.083-.125-.25-.25-.832-.416-3.327.665-2.37,1.04-3.909.582-4.616.208a2.082,2.082,0,0,1-.873-.707v-8.317Zm18.382.083.416.541v8.151a1.784,1.784,0,0,1-.873.749,5.4,5.4,0,0,1-4.616-.25c-2.5-1.081-3.077-.915-3.327-.665-.042.042-.042.083-.083.125-.042,0-.083-.042-.125-.042a.424.424,0,0,1,.208-.333,1,1,0,0,1,.624-.166,6.6,6.6,0,0,1,2.578.79c2.537.915,3.909.541,4.491.25a1.235,1.235,0,0,0,.665-.665Zm-.749,7.943v-8.858l.457.582v8.525a1.175,1.175,0,0,1-.582.624c-.457.25-1.83.707-4.325-.333-1.871-.915-2.745-.832-3.119-.624a.873.873,0,0,0-.416.624l.042.042c-.042,0-.083-.042-.125-.042a.452.452,0,0,0-.042-.208,1.094,1.094,0,0,1,.582-.749c.457-.208,1.289-.291,2.953.582a5.475,5.475,0,0,0,2.5.582,3.206,3.206,0,0,0,1.5-.291A.592.592,0,0,0,120.4,495.822Zm-8.692.915a.145.145,0,0,1,.083.042h.416a.943.943,0,0,1,.457.25l.042.166h-1.58l.042-.166v-.042A1.311,1.311,0,0,1,111.7,496.737Zm.624-9.648a1.874,1.874,0,0,1,.707-1.331c.707-.457,1.955-.042,3.244.333.333.125.707.208,1.081.333a6.289,6.289,0,0,0,2.578.125v9.191c0,.042-.083.083-.25.208a4.64,4.64,0,0,1-3.576-.291,5.205,5.205,0,0,0-2.5-.79,1.933,1.933,0,0,0-.873.208.906.906,0,0,0-.374.291c-.042-6.113-.042-7.777-.042-8.276Zm-8.359-.5a5.923,5.923,0,0,0,2.537-.083,11.47,11.47,0,0,0,1.123-.333c1.788-.541,3.285-1.04,3.951.915.042.374,0,4.824,0,8.193-.125-.083-.25-.208-.374-.291-.79-.374-1.913-.208-3.369.582-1.955.957-2.953.749-3.41.541a1.144,1.144,0,0,1-.457-.374Zm.25,10.023a2.885,2.885,0,0,0,1.081.208,6.312,6.312,0,0,0,2.745-.749c1.289-.707,2.287-.915,2.953-.582a1.359,1.359,0,0,1,.624.79v.166c-.042,0-.083.042-.125.042l.042-.042a.873.873,0,0,0-.416-.624c-.416-.25-1.289-.333-3.119.582-2.163,1.04-3.493.749-4.117.457a1.517,1.517,0,0,1-.79-.749V487.5l.457-.541V495.9C103.554,496.154,103.845,496.445,104.219,496.612Z" transform="translate(-16.356 -52.689)" fill="#464e7d"/><path d="M193.3,492.959a1.949,1.949,0,0,1,2.038-.208,8.394,8.394,0,0,0,2.786.665h.166a.25.25,0,0,0,0-.5h0a7.3,7.3,0,0,1-2.828-.665,2.38,2.38,0,0,0-2.454.333.253.253,0,0,0,0,.333C193.054,493.084,193.22,493.084,193.3,492.959Z" transform="translate(-70.008 -56.729)" fill="#464e7d"/><path d="M193.245,497.559a1.9,1.9,0,0,1,1.955-.25h.042a9.315,9.315,0,0,0,2.786.665h.166a.25.25,0,0,0,0-.5,7.544,7.544,0,0,1-2.786-.624h-.042a2.38,2.38,0,0,0-2.454.333.253.253,0,0,0,0,.333A.22.22,0,0,0,193.245,497.559Z" transform="translate(-69.949 -59.416)" fill="#464e7d"/><path d="M193.3,502.317a1.978,1.978,0,0,1,2.038-.208,8.179,8.179,0,0,0,2.786.665h.166a.25.25,0,0,0,0-.5,7.883,7.883,0,0,1-2.828-.624,2.38,2.38,0,0,0-2.454.333.253.253,0,0,0,0,.333C193.054,502.4,193.22,502.4,193.3,502.317Z" transform="translate(-70.008 -62.22)" fill="#464e7d"/><path d="M173.491,493.526h.166a8.582,8.582,0,0,0,2.828-.665,1.819,1.819,0,0,1,1.955.25.235.235,0,0,0,.333-.333,2.426,2.426,0,0,0-2.537-.333,7.386,7.386,0,0,1-2.786.624h0a.268.268,0,0,0-.25.25A.389.389,0,0,0,173.491,493.526Z" transform="translate(-58.471 -56.838)" fill="#464e7d"/><path d="M173.55,498.126h.166a8.393,8.393,0,0,0,2.786-.665h.083a1.819,1.819,0,0,1,1.955.25.235.235,0,0,0,.333-.333,2.319,2.319,0,0,0-2.454-.333l-.083.042a7.235,7.235,0,0,1-2.786.624.24.24,0,0,0-.25.249C173.3,498,173.425,498.084,173.55,498.126Z" transform="translate(-58.53 -59.525)" fill="#464e7d"/><path d="M173.55,502.826h.166a8.393,8.393,0,0,0,2.786-.665h.042a1.819,1.819,0,0,1,1.955.249.235.235,0,1,0,.333-.333,2.318,2.318,0,0,0-2.454-.333h-.042a7.388,7.388,0,0,1-2.786.624.24.24,0,0,0-.25.25A.27.27,0,0,0,173.55,502.826Z" transform="translate(-58.53 -62.271)" fill="#464e7d"/><path d="M167.626,499.232a12.345,12.345,0,0,0,5.115-1.414c0,.042.042.042.042.083a.905.905,0,0,0,.624.208h2.454a.905.905,0,0,0,.624-.208l.042-.042c1.456.79,5.282,2.5,8.65.249l.208-.125V487.13l-1.705-.083-.665-.832h0a.041.041,0,0,0-.042-.042.183.183,0,0,0-.208-.042,6.841,6.841,0,0,1-2.62-.083,10.042,10.042,0,0,1-1.04-.333c-1.414-.457-2.745-.832-3.66-.291a2.1,2.1,0,0,0-.873,1.372c-.832-2.121-2.745-1.539-4.45-1a11.464,11.464,0,0,1-1.123.333,5.017,5.017,0,0,1-2.578,0,.183.183,0,0,0-.208.042l-.083.083-.707.832-1.622.083v10.563l.125.125A5.269,5.269,0,0,0,167.626,499.232ZM165.463,487.8v8.567a1.263,1.263,0,0,0,.707.707c.582.291,1.913.665,4.367-.291,1.663-.79,2.745-1,3.2-.624a.607.607,0,0,1,.208.333c-.042,0-.083.042-.125.042,0-.042-.042-.083-.083-.125-.25-.25-.832-.416-3.327.665-2.37,1.04-3.909.582-4.616.208a2.082,2.082,0,0,1-.873-.707v-8.317Zm18.34.083.416.541v8.151a1.784,1.784,0,0,1-.873.749,5.4,5.4,0,0,1-4.616-.25c-2.5-1.081-3.077-.915-3.327-.665-.042.042-.042.083-.083.125-.042,0-.083-.042-.125-.042a.424.424,0,0,1,.208-.333,1,1,0,0,1,.624-.166,6.6,6.6,0,0,1,2.578.79c2.537.915,3.909.541,4.491.25a1.235,1.235,0,0,0,.665-.665Zm-.707,7.943v-8.858l.457.582v8.525a1.175,1.175,0,0,1-.582.624c-.457.25-1.83.707-4.325-.333-1.871-.915-2.745-.832-3.119-.624a.873.873,0,0,0-.416.624l.042.042c-.042,0-.083-.042-.125-.042a.452.452,0,0,0-.042-.208,1.094,1.094,0,0,1,.582-.749c.457-.208,1.289-.291,2.953.582a5.475,5.475,0,0,0,2.5.582,3.206,3.206,0,0,0,1.5-.291A.633.633,0,0,0,183.1,495.822Zm-8.733.915a.145.145,0,0,1,.083.042h.416a.943.943,0,0,1,.457.25l.042.166h-1.58l.042-.166v-.042A2.151,2.151,0,0,1,174.363,496.737Zm.665-9.648a1.874,1.874,0,0,1,.707-1.331c.707-.457,1.955-.042,3.244.333.333.125.707.208,1.081.333a6.289,6.289,0,0,0,2.578.125v9.191c0,.042-.083.083-.25.208a4.64,4.64,0,0,1-3.577-.291,5.205,5.205,0,0,0-2.5-.79,1.933,1.933,0,0,0-.873.208.906.906,0,0,0-.374.291c-.042-6.113-.042-7.777-.042-8.276Zm-8.4-.5a5.923,5.923,0,0,0,2.537-.083,11.467,11.467,0,0,0,1.123-.333c1.788-.541,3.285-1.04,3.951.915.042.374,0,4.824,0,8.193-.125-.083-.25-.208-.374-.291-.79-.374-1.913-.208-3.369.582-1.955.957-2.953.749-3.41.541a1.144,1.144,0,0,1-.457-.374Zm.249,10.023a2.885,2.885,0,0,0,1.081.208,6.313,6.313,0,0,0,2.745-.749c1.289-.707,2.287-.915,2.953-.582a1.359,1.359,0,0,1,.624.79v.166c-.042,0-.083.042-.125.042l.042-.042a.873.873,0,0,0-.416-.624c-.416-.25-1.289-.333-3.119.582-2.163,1.04-3.493.749-4.117.457a1.516,1.516,0,0,1-.79-.749V487.5l.457-.541V495.9A1.09,1.09,0,0,0,166.877,496.612Z" transform="translate(-52.98 -52.689)" fill="#464e7d"/></g></svg>