<svg xmlns="http://www.w3.org/2000/svg" width="365" height="101.082" viewBox="0 0 365 101.082"><g transform="translate(-68.1 -77.8)"><g transform="translate(150.909 103.133)"><path d="M267.5,139.9h25.167v6.229h-8.887v47.26h-7.392v-47.26H267.5Z" transform="translate(-267.5 -139.443)" fill="#fff"/><path d="M333.8,152.878c0-7.475,2.45-14.078,12.5-14.078,7.351,0,10.756,3.7,10.756,9.718v5.316h-6.977v-3.7c0-3.405-1.2-5.565-4.277-5.565-3.862,0-4.61,2.741-4.61,9.178V180c0,6.312,1.993,7.392,4.361,7.392,2.741,0,4.527-1.91,4.527-6.354v-3.7h6.977v5.939c0,5.648-2.284,9.925-10.881,9.925-9.344,0-12.376-4.942-12.376-13.248Z" transform="translate(-306.266 -138.8)" fill="#fff"/><path d="M402.1,139.9h10.216l8.721,44.436h.166V139.9h6.977v53.448H417.507l-8.721-45.6h-.166v45.6H402.1Z" transform="translate(-346.202 -139.443)" fill="#fff"/><path d="M476.5,177.733h6.977v5.274c0,2.16.291,5.025,2.824,5.025,2.741,0,3.032-2.575,3.032-5.316V139.9h7.392v43.606c0,6.52-3.115,10.3-10.424,10.3-6.146,0-9.759-1.869-9.759-9.178v-6.894Z" transform="translate(-389.704 -139.443)" fill="#fff"/></g><path d="M550.8,139.7h11.877v2.949h-4.194v22.3h-3.488v-22.3H550.8Z" transform="translate(-282.239 -36.193)" fill="#fff"/><path d="M586.4,139.7h3.488v10.839h4.651V139.7h3.489v25.25H594.54V153.488h-4.651V164.95H586.4V139.7Z" transform="translate(-303.054 -36.193)" fill="#fff"/><path d="M620.6,139.7h9.51v2.949h-6.022v7.891h5.648v2.949h-5.648V162h6.022v2.949H620.6Z" transform="translate(-323.051 -36.193)" fill="#fff"/><path d="M661.842,145.845c0-3.53,1.163-6.645,5.9-6.645,3.447,0,5.067,1.744,5.067,4.568V146.3h-3.281v-1.744c0-1.62-.54-2.616-2.035-2.616-1.827,0-2.16,1.287-2.16,4.319v12.376c0,2.99.955,3.488,2.076,3.488,1.287,0,2.118-.914,2.118-2.99V157.39h3.281v2.782c0,2.658-1.08,4.693-5.15,4.693-4.4,0-5.856-2.326-5.856-6.271V145.845Z" transform="translate(-347.141 -35.901)" fill="#fff"/><path d="M693.8,145.845c0-3.53,1.163-6.645,5.9-6.645,4.527,0,5.939,2.326,5.939,6.271V158.22c0,3.53-1.163,6.645-5.939,6.645-4.485,0-5.9-2.326-5.9-6.271Zm3.488,12.957c0,2.16,1,3.322,2.409,3.322,1.453,0,2.45-1.163,2.45-3.322V145.554c0-2.492-.831-3.655-2.45-3.655-1.578,0-2.409,1.163-2.409,3.655Z" transform="translate(-365.852 -35.901)" fill="#fff"/><path d="M728.242,139.7h3.488V162h5.856v2.949H728.2V139.7Z" transform="translate(-385.966 -36.193)" fill="#fff"/><path d="M754.742,139.7h3.488V162h5.856v2.949H754.7V139.7Z" transform="translate(-401.461 -36.193)" fill="#fff"/><path d="M781.3,139.7h9.51v2.949h-6.022v7.891h5.648v2.949h-5.648V162h6.022v2.949H781.3Z" transform="translate(-417.014 -36.193)" fill="#fff"/><path d="M817.64,146.035v-1.287c0-1.786-.872-2.866-2.243-2.866-1.62,0-2.409,1.454-2.409,4.153v12.708c0,2.035,1,3.322,2.409,3.322a9.009,9.009,0,0,0,2.243-.249v-7.392h-2.326v-2.949h5.814v12.666a28.209,28.209,0,0,1-5.773.623c-4.444,0-5.856-2.326-5.856-6.271V145.745c0-4.734,1.412-6.645,5.939-6.645,3.738,0,5.689,1.37,5.689,4.568v2.326H817.64Z" transform="translate(-433.503 -35.843)" fill="#fff"/><path d="M843.7,139.7h9.51v2.949h-6.022v7.891h5.648v2.949h-5.648V162h6.022v2.949H843.7Z" transform="translate(-453.5 -36.193)" fill="#fff"/><path d="M885.6,145.845c0-3.53,1.163-6.645,5.9-6.645,4.527,0,5.939,2.326,5.939,6.271V158.22c0,3.53-1.163,6.645-5.939,6.645-4.485,0-5.9-2.326-5.9-6.271Zm3.488,12.957c0,2.16,1,3.322,2.409,3.322,1.454,0,2.45-1.163,2.45-3.322V145.554c0-2.492-.831-3.655-2.45-3.655-1.578,0-2.409,1.163-2.409,3.655Z" transform="translate(-477.999 -35.901)" fill="#fff"/><path d="M921.8,139.7h9.51v2.949h-6.022v7.891h5.648v2.949h-5.648V164.95H921.8Z" transform="translate(-499.165 -36.193)" fill="#fff"/><path d="M570.367,238.034c0,.914,0,4.527.083,5.316a.557.557,0,0,1-.581.332c-.374-.5-1.246-1.578-3.9-4.61l-7.06-8.057c-.831-.955-2.907-3.447-3.53-4.111h-.042a7.618,7.618,0,0,0-.166,1.993v6.645c0,1.412.042,5.4.54,6.312.166.332.789.5,1.537.581l.955.083c.166.249.166.623-.042.748-1.37-.042-2.45-.083-3.571-.083-1.287,0-2.118.042-3.156.083a.528.528,0,0,1-.042-.748l.831-.083c.706-.083,1.2-.291,1.329-.623.415-1.08.415-4.817.415-6.271v-8.8a2.855,2.855,0,0,0-.664-2.2,3.632,3.632,0,0,0-1.869-.748l-.5-.042a.568.568,0,0,1,.042-.748c1.287.083,2.907.083,3.447.083.5,0,1-.042,1.412-.083.623,1.537,4.194,5.565,5.191,6.686l2.949,3.322c2.118,2.326,3.613,4.07,5.025,5.523h.042a3.025,3.025,0,0,0,.125-1.287v-6.52c0-1.412-.042-5.4-.623-6.312-.166-.291-.664-.457-1.869-.623l-.5-.042c-.208-.166-.166-.664.042-.748,1.412.042,2.45.083,3.613.083,1.329,0,2.118-.042,3.156-.083a.5.5,0,0,1,.042.748l-.415.042a3.113,3.113,0,0,0-1.7.623c-.5,1.08-.457,4.859-.457,6.271v7.351Z" transform="translate(-282.245 -84.9)" fill="#fff"/><path d="M608.634,227.81c0-3.156-.042-3.613-1.869-3.821l-.5-.042a.622.622,0,0,1,.042-.748c1.329.042,2.326.083,3.613.083h5.731c1.952,0,3.738,0,4.111-.083a37.143,37.143,0,0,1,.5,4.07c-.125.166-.623.249-.747.042-.457-1.412-.748-2.492-2.326-2.907a13.742,13.742,0,0,0-2.949-.166h-2.2c-.914,0-.914.042-.914,1.2v6.1c0,.872.083.872,1,.872h1.786a11.08,11.08,0,0,0,2.575-.166c.374-.125.581-.291.748-1.08l.249-1.246a.625.625,0,0,1,.789.042c0,.748-.125,1.91-.125,3.073,0,1.08.125,2.243.125,2.907a.625.625,0,0,1-.789.042l-.291-1.2a1.329,1.329,0,0,0-.955-1.163,9.671,9.671,0,0,0-2.326-.166h-1.786c-.914,0-1,.042-1,.831v4.277c0,1.62.083,2.658.581,3.156.374.374,1,.706,3.7.706,2.326,0,3.239-.125,3.9-.457a7.6,7.6,0,0,0,2.16-2.949.554.554,0,0,1,.748.208,24.122,24.122,0,0,1-1.37,4.236c-2.741-.042-5.44-.083-8.181-.083h-2.741c-1.329,0-2.326.042-4.153.083a.564.564,0,0,1-.042-.748l1-.083c1.744-.166,1.869-.623,1.869-3.821V227.81Z" transform="translate(-314.283 -85.017)" fill="#fff"/><path d="M640.737,223.689a.53.53,0,0,1,.083-.748c.831.042,2.2.083,3.156.083.872,0,2.409-.042,3.488-.083.291.083.249.5.042.748l-.706.042c-.623.042-1,.249-1,.5a22.894,22.894,0,0,0,1.578,4.07c1.7,3.821,3.488,7.6,5.274,11.337.747-1.537,1.537-3.239,2.326-4.942a4.817,4.817,0,0,0,.5-1.246,2.281,2.281,0,0,0-.249-.789c-1.08-2.45-2.2-4.859-3.364-7.309-.457-.955-.914-1.578-1.952-1.661l-.747-.042a.519.519,0,0,1,.042-.748c.872.042,2.035.083,3.239.083,1.537,0,2.658-.042,3.364-.083.208.083.249.5.042.748l-.789.042c-1.2.083-1.2.291-.623,1.661.623,1.5,1.5,3.405,2.326,5.316.581-1.2,1.121-2.326,1.786-3.987,1.08-2.575.955-2.907-.042-2.99l-.914-.042a.514.514,0,0,1,.042-.748c.831.042,1.744.083,2.866.083,1,0,2.243-.042,2.907-.083.208.083.249.5.042.748l-.872.042c-1.287.083-1.827,1.454-2.492,2.7-.623,1.121-1.91,3.779-2.367,4.859a2.194,2.194,0,0,0-.291.748,2.007,2.007,0,0,0,.208.748c1.038,2.326,2.118,4.61,3.115,6.935.955-2.118,1.869-4.278,2.741-6.437.623-1.454,2.243-5.523,2.45-6.063a15.747,15.747,0,0,0,.914-2.782c0-.415-.374-.664-1-.706l-.872-.042c-.249-.291-.208-.623.042-.748,1.163.042,1.993.083,2.907.083,1.163,0,2.035-.042,2.824-.083.249.083.291.5.042.748l-.581.042c-1.537.166-1.786,1.08-3.613,5.316l-2.243,5.15c-1.329,3.115-2.575,6.1-3.821,9.344a.829.829,0,0,1-.374.083,1.229,1.229,0,0,1-.415-.083c-.955-2.7-2.741-6.52-3.7-8.638-1.08,2.243-2.907,6.1-3.821,8.638a.83.83,0,0,1-.374.083,1.766,1.766,0,0,1-.457-.083c-.5-1.287-1.7-4.028-2.118-4.9-1.952-4.236-3.821-8.472-5.814-12.708-.581-1.246-.955-2.076-2.243-2.2Z" transform="translate(-334.758 -84.841)" fill="#fff"/><path d="M729.565,227.793c0-3.364-.291-3.738-2.118-3.9l-.747-.042a.622.622,0,0,1,.042-.748c1.786.042,2.782.083,4.07.083,1.2,0,2.243-.042,3.488-.083.166.083.249.623.042.748l-.457.042c-1.786.249-1.869.664-1.869,3.9v11.3a16.668,16.668,0,0,1-.706,5.9,6.587,6.587,0,0,1-5.98,4.4c-.374,0-1.329-.042-1.329-.623,0-.5.457-1.412,1.08-1.412a3.5,3.5,0,0,1,1.121.166,4.631,4.631,0,0,0,1.287.208,1.306,1.306,0,0,0,1.2-.789c.706-1.412.789-5.98.789-7.641v-11.5Z" transform="translate(-383.51 -84.958)" fill="#fff"/><path d="M752.934,227.81c0-3.156-.042-3.613-1.869-3.821l-.5-.042a.622.622,0,0,1,.042-.748c1.329.042,2.326.083,3.613.083h5.731c1.952,0,3.738,0,4.111-.083a37.143,37.143,0,0,1,.5,4.07c-.125.166-.623.249-.747.042-.457-1.412-.747-2.492-2.326-2.907a13.742,13.742,0,0,0-2.949-.166h-2.2c-.914,0-.914.042-.914,1.2v6.1c0,.872.083.872,1,.872h1.786a11.08,11.08,0,0,0,2.575-.166c.374-.125.581-.291.747-1.08l.249-1.246a.625.625,0,0,1,.789.042c0,.748-.125,1.91-.125,3.073,0,1.08.125,2.243.125,2.907a.625.625,0,0,1-.789.042l-.291-1.2a1.329,1.329,0,0,0-.955-1.163,9.669,9.669,0,0,0-2.326-.166h-1.786c-.914,0-1,.042-1,.831v4.277c0,1.62.083,2.658.581,3.156.374.374,1,.706,3.7.706,2.326,0,3.239-.125,3.9-.457a7.6,7.6,0,0,0,2.159-2.949.554.554,0,0,1,.747.208,24.122,24.122,0,0,1-1.37,4.236c-2.741-.042-5.44-.083-8.181-.083h-2.741c-1.329,0-2.326.042-4.153.083a.564.564,0,0,1-.042-.748l1-.083c1.744-.166,1.869-.623,1.869-3.821V227.81Z" transform="translate(-398.656 -85.017)" fill="#fff"/><path d="M793.418,227.693c0-2.907-.083-3.405-1.329-3.572l-.955-.125a.493.493,0,0,1,.042-.748c1.7-.166,3.821-.249,6.811-.249a10.847,10.847,0,0,1,5.067.914,4.533,4.533,0,0,1,2.533,4.277,5.551,5.551,0,0,1-3.821,5.067c-.166.166,0,.5.166.748,2.45,3.945,4.07,6.354,6.1,8.1a3.783,3.783,0,0,0,2.118.872c.166.042.166.291.042.415a4.948,4.948,0,0,1-1.329.166c-2.575,0-4.153-.748-6.312-3.821-.789-1.121-2.035-3.239-2.99-4.61a2.183,2.183,0,0,0-2.16-.955c-1.37,0-1.412.042-1.412.664v3.821c0,3.2.042,3.572,1.827,3.821l.623.083c.166.166.125.664-.042.748-1.37-.042-2.409-.083-3.613-.083-1.287,0-2.367.042-3.821.083a.559.559,0,0,1-.042-.748l.747-.083c1.786-.208,1.827-.623,1.827-3.821V227.693Zm2.492,4.361a2.607,2.607,0,0,0,.083,1c.083.083.54.166,2.118.166a5.279,5.279,0,0,0,3.156-.789,4.325,4.325,0,0,0,1.537-3.779,4.484,4.484,0,0,0-4.859-4.693c-1.869,0-1.993.125-1.993.955v7.143Z" transform="translate(-422.571 -84.9)" fill="#fff"/><path d="M840.665,243.155a9.422,9.422,0,0,1-4.734-1.121,14.385,14.385,0,0,1-.831-4.277c.166-.208.623-.291.748-.083.457,1.537,1.7,4.527,5.233,4.527,2.575,0,3.821-1.661,3.821-3.488a4.658,4.658,0,0,0-2.492-4.278l-2.907-1.869a6.443,6.443,0,0,1-3.281-5.233c0-2.907,2.243-5.233,6.229-5.233a10.072,10.072,0,0,1,2.824.415,4.02,4.02,0,0,0,1.08.166,12.9,12.9,0,0,1,.54,3.7c-.125.166-.623.291-.747.083-.415-1.454-1.2-3.447-4.153-3.447-2.99,0-3.613,1.993-3.613,3.364,0,1.786,1.453,3.032,2.575,3.738l2.45,1.537c1.91,1.2,3.821,2.949,3.821,5.856C847.143,240.871,844.61,243.155,840.665,243.155Z" transform="translate(-448.471 -84.373)" fill="#fff"/><path d="M870.134,227.81c0-3.156-.042-3.613-1.869-3.821l-.5-.042a.622.622,0,0,1,.042-.748c1.329.042,2.326.083,3.613.083h5.731c1.952,0,3.738,0,4.111-.083a37.143,37.143,0,0,1,.5,4.07c-.125.166-.623.249-.747.042-.457-1.412-.748-2.492-2.326-2.907a13.741,13.741,0,0,0-2.948-.166h-2.2c-.914,0-.914.042-.914,1.2v6.1c0,.872.083.872,1,.872h1.786a11.08,11.08,0,0,0,2.575-.166c.374-.125.581-.291.748-1.08l.249-1.246a.625.625,0,0,1,.789.042c0,.748-.125,1.91-.125,3.073,0,1.08.125,2.243.125,2.907a.625.625,0,0,1-.789.042l-.291-1.2a1.329,1.329,0,0,0-.955-1.163,9.671,9.671,0,0,0-2.326-.166h-1.786c-.914,0-1,.042-1,.831v4.277c0,1.62.083,2.658.581,3.156.374.374,1,.706,3.7.706,2.326,0,3.239-.125,3.9-.457a7.6,7.6,0,0,0,2.16-2.949.554.554,0,0,1,.748.208,24.122,24.122,0,0,1-1.37,4.236c-2.741-.042-5.44-.083-8.181-.083h-2.741c-1.329,0-2.326.042-4.153.083a.564.564,0,0,1-.042-.748l1-.083c1.744-.166,1.869-.623,1.869-3.821V227.81Z" transform="translate(-467.184 -85.017)" fill="#fff"/><path d="M920.753,223.789l-.872.166c-1.578.291-2.492,2.2-4.028,4.817l-1.91,3.322c-1.329,2.326-1.412,2.575-1.412,4.942v1.578c0,3.239.166,3.738,1.827,3.862l1.163.083c.166.166.125.664-.042.748-1.869-.042-2.907-.083-4.153-.083-1.287,0-2.367.042-3.987.083a.564.564,0,0,1-.042-.748l.955-.083c1.786-.166,1.827-.623,1.827-3.862v-1.537a6.206,6.206,0,0,0-.955-3.779l-3.613-7.018c-1.038-1.993-1.495-2.16-2.409-2.326l-.872-.166c-.166-.208-.166-.623.042-.748.955.042,2.076.083,3.53.083,1.412,0,2.492-.042,3.239-.083.291.083.291.581.083.748l-.415.042c-1.08.166-1.287.291-1.287.54a13.738,13.738,0,0,0,.955,2.326c1.121,2.243,2.243,4.651,3.447,6.769.955-1.62,1.952-3.364,2.865-5.15a25.635,25.635,0,0,0,1.993-4.028c0-.166-.54-.415-1.287-.5l-.54-.042A.523.523,0,0,1,914.9,223c1.08.042,1.993.083,2.907.083.955,0,1.786-.042,2.824-.083" transform="translate(-487.653 -84.9)" fill="#fff"/><g transform="translate(68.1 77.8)"><path d="M153.44,118.975l-.54.457c3.738-.125,5.191-1.163,5.191-1.163a1.94,1.94,0,0,1-.581.166,4.363,4.363,0,0,0,.5-2.035c-.083,0-.748,1.661-1.038,2.16-.208.042-.457.083-.706.125a4.467,4.467,0,0,0,.5-2.035c-.083,0-.748,1.537-1.038,2.118-.249.042-.5.042-.706.083a5.658,5.658,0,0,0,.457-1.993c-.083,0-.706,1.454-1,2.035C153.938,118.933,153.523,118.975,153.44,118.975Z" transform="translate(-117.683 -100.37)" fill="none"/><path d="M133.753,84.482c.125,0,.208.083.208,0a.2.2,0,0,0-.208-.208,3.734,3.734,0,0,0-2.907.706,8.382,8.382,0,0,0-1.246.581s1.2-.166,1.5.042A3.5,3.5,0,0,1,133.753,84.482Z" transform="translate(-104.06 -81.575)" fill="none"/><path d="M134.648,92.392h0a5.078,5.078,0,0,0-1.038-1.91c.5.249,1.37.872,1.454.872h0a13.7,13.7,0,0,0-1.5-1.163c.042,0,1.744.457,1.786.415a.041.041,0,0,0,.042-.042,19.588,19.588,0,0,0-1.869-.664,1.184,1.184,0,0,0-.332.581C133.776,90.855,134.565,92.392,134.648,92.392Z" transform="translate(-106.159 -84.875)" fill="none"/><path d="M141.027,84.741a.72.72,0,0,1,.748.208c.415.623.083,1.578-.872,1.163a1.047,1.047,0,0,0,.623.208c.374,0,1.163-.54.581-1.62a1.026,1.026,0,0,0-1.2-.374.174.174,0,0,0-.125.249C140.82,84.7,140.944,84.782,141.027,84.741Z" transform="translate(-110.586 -81.584)" fill="none"/><path d="M144.816,103.326c.042.083.166.125.083.042-1.287-2.16,1.661-5.565,1.7-5.565a.206.206,0,0,0-.291-.291C146.187,97.637,143.363,100.918,144.816,103.326Z" transform="translate(-112.714 -89.29)" fill="none"/><path d="M135.529,86.633a.947.947,0,0,0-1.08.332h-.042l-.042.083-.042.083a.573.573,0,0,0-.125.166.041.041,0,0,0,.042-.042l-.042.042s.54.457.789.042c.042-.125.166-.249,0-.332a1.057,1.057,0,0,0-.291-.083C134.906,86.509,135.529,86.633,135.529,86.633Z" transform="translate(-106.749 -82.937)" fill="none"/><path d="M143.287,89.079a4.1,4.1,0,0,0-.208-1.952,5.044,5.044,0,0,0-1.163-1.329c.166.415.415,1.287.581,1.62.249.54.664.914.623,1.62-.042.748-.748,1.121-1.246,1.744-.083.083-2.949,1.952-2.533,4.4a2.574,2.574,0,0,0,1.163,1.952c.125.083.083-.042,0-.083-.166-.083-.623-.748-.332-1.952a10.794,10.794,0,0,1,1.952-4.028C142.54,90.449,143.246,89.992,143.287,89.079Z" transform="translate(-109.732 -82.475)" fill="none"/><path d="M131.078,123.468c.042,0,.125,0,.125-.042a8.7,8.7,0,0,1,3.239-2.035c.166-.083.332-.166.54-.249a2.54,2.54,0,0,1,.5-.208c1.329-.581,2.326-1.121,2.575-2.7,0-.125-.125-.166-.166-.042-.208,1.329-1.329,1.827-2.575,2.367a2.54,2.54,0,0,1-.5.208c-.166.083-.374.166-.54.249a9.3,9.3,0,0,0-3.364,2.16.2.2,0,0,0,0,.291C130.954,123.427,131,123.468,131.078,123.468Z" transform="translate(-104.79 -101.375)" fill="none"/><path d="M137.016,94.5a14.492,14.492,0,0,0,1.454-1.329,1.808,1.808,0,0,0,.706-1.661c-.125-.5-.706-.415-.914-.415.166,0,.581.083.54.5a11.938,11.938,0,0,1-2.326,2.16,5.523,5.523,0,0,0-2.035,3.738c-.166,1.578.166,2.492.914,2.658h.042C133.652,98.277,135.936,95.37,137.016,94.5Z" transform="translate(-106.866 -85.569)" fill="none"/><path d="M136.844,92.251a.214.214,0,1,0-.208-.374,8.155,8.155,0,0,0-3.945,5.357c-.042.125.125.125.166.042A7.8,7.8,0,0,1,136.844,92.251Z" transform="translate(-105.863 -86.021)" fill="none"/><path d="M143.6,91.1h0Z" transform="translate(-112.245 -85.577)" fill="none"/><path d="M118.549,136.277a.2.2,0,0,0-.249.083h.332A.089.089,0,0,0,118.549,136.277Z" transform="translate(-97.452 -111.982)" fill="none"/><path d="M174.957,126.131a.153.153,0,0,0,.125-.042.256.256,0,0,0,.042-.291.916.916,0,0,1-.249-.623A3.343,3.343,0,0,1,176,122.642l.208-.208c.083-.083-.042-.166-.083-.083l-.208.208a3.472,3.472,0,0,0-1.412,2.616,1.217,1.217,0,0,0,.332.872C174.874,126.089,174.915,126.131,174.957,126.131Z" transform="translate(-130.313 -103.83)" fill="none"/><path d="M141.347,128.856a3.294,3.294,0,0,1,2.533-1.661c.083,0,.166-.042.249-.042a1.45,1.45,0,0,1,1,.415h.083a1.811,1.811,0,0,0,1.246-.623,2.335,2.335,0,0,1,1.038-.748c0-.166-.042-.332-.042-.5a18.546,18.546,0,0,1-6.935,1.744,6.346,6.346,0,0,1-2.035-.291q-.561.249-1.246.5c-.332.125-.664.291-1,.415h0A9.8,9.8,0,0,0,133,130.144h8.057A2.224,2.224,0,0,1,141.347,128.856Z" transform="translate(-106.048 -105.808)" fill="none"/><path d="M175.727,114.829c.374-.125.748-.249,1.038-.374a6.274,6.274,0,0,1,2.492-.789c.955,0,1.246,1,1.661,1.91a3.613,3.613,0,0,0,1.744,2.16h.083a.228.228,0,0,0,.208-.125.174.174,0,0,0-.125-.249c-.831-.332-1.163-1.163-1.537-1.952-.415-.955-.831-1.91-2.035-1.91a7.133,7.133,0,0,0-2.616.581c-.332.125-.664.249-1.038.374a.2.2,0,0,0,.125.374Z" transform="translate(-130.876 -98.674)" fill="none"/><path d="M156.764,138.842h0a1.012,1.012,0,0,0,1.163.125,3.3,3.3,0,0,0,2.118-.125l.083-.042H156.1A.871.871,0,0,0,156.764,138.842Z" transform="translate(-119.554 -113.467)" fill="none"/><path d="M201.28,139.149a2.448,2.448,0,0,0,1.454.083h.125a1.558,1.558,0,0,0,.623,0,.668.668,0,0,0,.457-.332H200.2C200.366,139.149,200.7,139.232,201.28,139.149Z" transform="translate(-145.34 -113.526)" fill="none"/><path d="M158.066,136.076a.717.717,0,0,0-.166.125h.457c0-.042,0-.042-.042-.083A.255.255,0,0,0,158.066,136.076Z" transform="translate(-120.607 -111.864)" fill="none"/><path d="M209.94,128.635a.2.2,0,0,0,.208-.208,9.2,9.2,0,0,0-1.454-4.028c-.083.042,1.038,2.575,1.038,4.028A.2.2,0,0,0,209.94,128.635Z" transform="translate(-150.304 -105.047)" fill="none"/><path d="M201.832,119.129h0a.28.28,0,0,0,.249-.166.228.228,0,0,0-.166-.249c-1.454-.249-3.945-2.7-4.028-2.616s.415.706.581.914A5.764,5.764,0,0,0,201.832,119.129Z" transform="translate(-143.982 -100.191)" fill="none"/><path d="M127.293,123.966a.6.6,0,0,0,.291-.083,11.1,11.1,0,0,1,3.738-2.409,6.625,6.625,0,0,0,.955-.415c.623-.249,1.163-.457,1.62-.664,2.035.872,5.482.166,9.718-1.786h.125a8.4,8.4,0,0,1,.374,2.658c0,.125-.042.166-.457.291a1.708,1.708,0,0,0-.872.5,3.128,3.128,0,0,1-2.035,1.038,1.17,1.17,0,0,1-.872-.291.472.472,0,0,0-.332-.125,2.419,2.419,0,0,0-1.786,1.121,1.366,1.366,0,0,0-.208.748h.706a.8.8,0,0,1,.125-.415,1.611,1.611,0,0,1,1.121-.748c.332.249.664,0,1.163,0a3.711,3.711,0,0,0,2.658-.914,1.658,1.658,0,0,1,.54-.291c.374-.125.914-.332.914-.955a7.591,7.591,0,0,0-.831-2.741c.083-.042.125-.083.208-.083a5.044,5.044,0,0,0,.664.54c.042-.042-.208-.415-.457-.664.125-.042.208-.125.332-.166a4.929,4.929,0,0,0,.831.664,2.262,2.262,0,0,0-.581-.789c.083-.042.208-.125.291-.166.249.166.914.831.955.789a2.332,2.332,0,0,0-.748-.914h0c.291-.125.54-.291.831-.415,1.993,0,2.492.831,2.326,1.537a5.435,5.435,0,0,0-1.661,1.7,4.477,4.477,0,0,0-.332,1.952,1.423,1.423,0,0,1-1.121.415,5.334,5.334,0,0,0-2.575,1.121,2.545,2.545,0,0,0-.249.166,3.9,3.9,0,0,0-.581.415h1.163c.042,0,.042-.042.083-.042.457-.374,1.537-1.329,1.993-1.329a2.927,2.927,0,0,0,1.91-.415c.042-.083.083-.125.042-.208a3.366,3.366,0,0,1,.249-1.744,4.776,4.776,0,0,1,1.578-1.578c.291-.208.5-.748.831-1.08l.125.125.042.042a4.381,4.381,0,0,0,.332.54c.042.042.083.042.125.083l.457.166a3.019,3.019,0,0,0,1.952,1.163.782.782,0,0,0,.332.083,16.049,16.049,0,0,0,1.744.249c.872.083,1.993.208,2.866.374,1.37.249,1.5.5,1.5.54.042.083.042.208.083.291.083.332.208.664.083.914-.125.208-.415.332-.914.457-.125.042-.208-.042-.374-.125a1.086,1.086,0,0,0-.831-.166,1.742,1.742,0,0,0-1.163,1,3.06,3.06,0,0,0-.166.581h.664a.6.6,0,0,1,.083-.291,1.212,1.212,0,0,1,.748-.623c.083-.042.166,0,.374.083a1.245,1.245,0,0,0,.831.166c.706-.125.748-.54.955-.955.291-.5.54-.831.415-1.287-.042-.083-.042-.166-.083-.249-.208-.789-1.744-1.08-4.984-1.412a13.315,13.315,0,0,1-1.62-.208.977.977,0,0,0-.332-.083,2.293,2.293,0,0,1-1.62-1c-.042-.083-.083-.125-.166-.125l-.457-.166c-.083-.083-.166-.208-.249-.291a.59.59,0,0,0-.083-.249,1.28,1.28,0,0,1-.374-.748,1.01,1.01,0,0,0-1.121-.872,13.009,13.009,0,0,0-5.482,1.7h0a.041.041,0,0,0-.042.042c-.042,0-.083,0-.083.042-4.07,1.91-6.6,2.284-8.472,1.578a7.948,7.948,0,0,0,1.454-1.329c.581-.623.789-1.246,1.91-1.121a.639.639,0,0,1,.332.083c.208,0-.083-.291-.291-.374-1.412-.415-1.869.291-2.45.955a11.109,11.109,0,0,1-1.869,1.827.374.374,0,0,0-.208.042c-.457.249-1.163.5-1.869.789-.249.083-.374.374-.581.54-.042,0-.083.042-.125.042a19.031,19.031,0,0,0-2.243,1,8.7,8.7,0,0,0-1.786,1.163,2.452,2.452,0,0,0-1.537.415,1.726,1.726,0,0,0-.457.914h.623a2.282,2.282,0,0,1,.291-.374A1.977,1.977,0,0,1,127.293,123.966Zm21.886-7.434c.083,0,.125,0,.166.042-.083,0-.125-.042-.166-.042Z" transform="translate(-101.545 -100.253)" fill="none"/><path d="M184.653,127.435c-.623-.083-1.287-.166-1.91-.208a12.4,12.4,0,0,1-1.993-.291.77.77,0,0,0-.291-.083,4.492,4.492,0,0,1-2.326-1.329l-.166-.042c-.042-.042-.125-.042-.166-.083a1.1,1.1,0,0,1-.249.208,3.477,3.477,0,0,0-1.246,1.2,2.907,2.907,0,0,0-.083,1.121,1.387,1.387,0,0,1-.249.914,3.188,3.188,0,0,1-2.492.872h-.208a2.818,2.818,0,0,0-.374.249h9.925a2.626,2.626,0,0,1,.291-1.08A3.086,3.086,0,0,1,184.653,127.435Z" transform="translate(-129.377 -105.632)" fill="none"/><path d="M115.149,136.085c-.125-.042-.208.042-.249.166h.415A.179.179,0,0,0,115.149,136.085Z" transform="translate(-95.464 -111.873)" fill="none"/><path d="M190.956,97.2a27.925,27.925,0,0,0-3.156.581c.042,0,.042,0,.083.042A8.935,8.935,0,0,0,190.956,97.2Z" transform="translate(-138.09 -89.143)" fill="none"/><path d="M114.206,139.025a1.638,1.638,0,0,0,1.412.125,2.288,2.288,0,0,0,.872.208,1.54,1.54,0,0,0,.581-.166,2.635,2.635,0,0,1,.789-.291H113.5l.083.083A.953.953,0,0,0,114.206,139.025Z" transform="translate(-94.646 -113.526)" fill="none"/><path d="M106.365,103.275a1.54,1.54,0,0,1,.748-.789c.042,0,.083.042.125.042s.083.042.125.083h.042c.415.249.623.166,1.7-.249,0,0,.831-.54,1.5-1a2.3,2.3,0,0,0,.332-.249,5.184,5.184,0,0,0,.415-.374c.457-.415,3.779-3.447,5.44-4.9.332-.291.706-.581,1.038-.872,1-.789.872-1.287.831-1.2a12.4,12.4,0,0,1-.955.831c-.332.291-1.038.415-1.37.706a7.972,7.972,0,0,0-.623.581,3.87,3.87,0,0,1-1.661-1.454l-.415-1.287a3.673,3.673,0,0,1,0-.955c.042-.291.125-1-.249-.872a17.71,17.71,0,0,0-.291,3.239s-4.983-.914-5.233-1.62a18.1,18.1,0,0,0-2.2-1.287,7.164,7.164,0,0,1-.415-1v-.125a.528.528,0,0,1,.125-.581.185.185,0,0,0,0-.208c-.042-.083-.083-.125-.166-.125,0,0-1.454-.208-1.744-1.08-.042-.125-.125.083-.083.208a1.953,1.953,0,0,0,1.5,1.246c-.042.125-.042.208-.083.332-.042,0-.083,0-.083.042l-.042.042a1.8,1.8,0,0,1-1.121-.083.573.573,0,0,1-.166-.125c-.125-.374-.249-.955.083-.914.125,0-.042-.208-.125-.249a.2.2,0,0,0-.249.125l-.083.5h-.083a1.991,1.991,0,0,1-1-.042c-.042-.042-.291-.166-.332-.332s0-.249.042-.249a2.364,2.364,0,0,0,.54.291c.042,0,.042.042.083.042.083,0,.166-.042.166-.125a.275.275,0,0,0-.083-.291s-.955-.249-.706-.789c0,0,.706.374,1.08.54h.083c.083,0,.166-.042.166-.125a.185.185,0,0,0-.125-.249c-.5-.208-1.2-.789-.623-1.08l.914.249a6.658,6.658,0,0,1,3.488,2.492l.125.125a7.572,7.572,0,0,0,1.993.872h.291c.166.083.748,1.2,1.163,1.121s2.492,1.5,2.492,1.5c0-.042-.042-.042-.042-.083.042.042.166.042.083-.042-.955-.872.291-3.738,1.2-5.606a1.559,1.559,0,0,0,.581-.208c.125-.125.166-.166.208-.166.208-.208.457-.125.581.208a.782.782,0,0,0-.166-.54.492.492,0,0,0-.374-.208.915.915,0,0,0-.664.374,4.13,4.13,0,0,1-1.62.083,3.024,3.024,0,0,0-1.7.083,3.288,3.288,0,0,1,0-1.287,9.563,9.563,0,0,1,2.409.166.312.312,0,0,0,.291-.208c.042-.208.042-1.537-.125-1.537-.291,0-1.661-.083-1.661-.083a3.692,3.692,0,0,1-.914-.042.513.513,0,0,1,.042-.415v-.042l.125-.706V83.3c.042,0,.623-.54.748-.581a1.023,1.023,0,0,0,.664-.249c.415.042.872.083,1.287.125a.3.3,0,0,0,.249-.125,2.313,2.313,0,0,1,.872-.748,4.166,4.166,0,0,1,1.578-.083.377.377,0,0,0,.291-.125.781.781,0,0,1,.706-.332,5.113,5.113,0,0,1,3.862,2.118c1.163,1.578,1.038,4.111.914,5.191-.083.415-.332,1.537-.581,2.492a14.069,14.069,0,0,1-.789,1.869,7.966,7.966,0,0,0-.748,1.91c-.042.125.042.208.166.249h.042a.212.212,0,0,0,.208-.166c0-.042.042-.083.042-.166a4.047,4.047,0,0,0,1.121,1,17,17,0,0,0-1-1.412c.042-.166.125-.332.166-.54.249.415,1.08,1.08,1.121,1,.042-.042-.706-.955-.955-1.412.083-.166.125-.374.208-.54.332.415,1.038,1.038,1.08.955.042-.042-.664-.914-.955-1.37.748-1.7,1.869-3.572,3.115-2.824a10.327,10.327,0,0,0,5.274,1.246h.166a10.894,10.894,0,0,0-2.035,1.287c-.083.083.083.166.125.125a20.926,20.926,0,0,1,6.562-2.741c.042,0,.083-.042.125-.083a3.491,3.491,0,0,1,2.16-.042c.042,0,.083.042.125.042,2.866,0,4.651-.457,5.4-1.329a1.376,1.376,0,0,0,.291-1.2,1.432,1.432,0,0,0-.581-.872c-1.08-.664-3.488-.249-8.264,1.08a30.3,30.3,0,0,1-5.4.706c-4.07.083-4.278-.955-4.485-1.7a9.486,9.486,0,0,0,1.121.872c.125-.208-1.744-2.076-1.744-2.076a21.077,21.077,0,0,0,1.786,1.121c.125-.291-1.246-1.2-1.412-1.412,0,0,1.91,1.038,1.952,1,.208-.249-1.246-1.038-1.246-1.038a4.536,4.536,0,0,1,3.987,2.409c0,.042.332,1,6.645-.623,6.645-1.7,9.3-1.7,9.842-.125a2.153,2.153,0,0,1-.415,2.076c-.54.748-2.076,1.993-6.022,1.952a.374.374,0,0,0-.332.5,2.225,2.225,0,0,0,.664,1c.249.166.5.332.706.5a5.948,5.948,0,0,1,2.533,2.616,6.107,6.107,0,0,0,3.53,2.7,3.787,3.787,0,0,1,.664.249,15.261,15.261,0,0,0,.664,2.2,3.054,3.054,0,0,1,.249.748,8.675,8.675,0,0,0,.374,1.121c.125.415.291.831.332,1.038a5.967,5.967,0,0,1-1.537.872h1c.5-.332,1.08-.623,1.2-.748.166-.166-.208-.914-.332-1.37-.125-.415-.291-.872-.332-1.08s-.166-.457-.291-.831a9.322,9.322,0,0,1-.664-2.16.317.317,0,0,0-.083-.208,2.389,2.389,0,0,0-1.038-.5,6.981,6.981,0,0,1-3.488-2.367c-.914-1.62-1.121-2.035-2.367-2.866-.208-.125-.457-.291-.706-.457-.083-.042-.125-.125-.208-.208,2.866-.042,5.025-.831,6.022-2.243a2.871,2.871,0,0,0,.457-2.741c-1.537-4.236-13.912,1.91-16.57.872-.54-.706-1.2-1.91-2.243-2.326-1.287-.54-1.827-.332-1.827-.332a2.45,2.45,0,0,0-1.661.042,1.358,1.358,0,0,0,.374,1.62A1.312,1.312,0,0,0,123.724,87c3.779,4.028,17.774-2.866,18.065-.125a.7.7,0,0,1-.166.623c-.332.415-1.412,1.5-4.817,1.537a6.609,6.609,0,0,0-4.111.042,14.575,14.575,0,0,1-3.281.706,12.963,12.963,0,0,1-6.686-1.5,9.663,9.663,0,0,0-.914-5.523,4.517,4.517,0,0,0-4.527-2.284,1.5,1.5,0,0,0-1,.706,3.872,3.872,0,0,0-1.7-.042,3.044,3.044,0,0,0-1,.872c-2.741-.374-3.032-.249-3.115-.166a.928.928,0,0,0-.166.831l.208.457-.291.664c-.125.374-.125.914.291,1.08a.527.527,0,0,0,.249.042,1.572,1.572,0,0,0,.332.5l.083-.5c.083.249.415,0,.415,0a1.572,1.572,0,0,0,.332.5l.083-.5c.083.249.415,0,.415,0a1.572,1.572,0,0,0,.332.5l.083-.5c.042.083.083.083.125.042a1.577,1.577,0,0,1,.249.748c-1-.083-2.409-.125-2.7.208-.415.457-.125,2.076-.083,2.118a.265.265,0,0,0,.249,0,2.416,2.416,0,0,1,1.7-.166c.083,0,.249.042.415.042A8.92,8.92,0,0,0,112.1,90.4a10.16,10.16,0,0,1-1.412.249c-.914-.083-1.5-.457-1.869-.374a9.025,9.025,0,0,1-1.952-.623,7.552,7.552,0,0,0-3.53-2.824L102,86.5h-.042l-.54-.125-.042.083.332.166v.125a4.177,4.177,0,0,0-.166.748l-.54-.208-.042.083.249.166a.59.59,0,0,0-.083.249,2.64,2.64,0,0,0,0,1h-.042l-.249-.083-.042.083.208.166a.527.527,0,0,0,.042.249,1.129,1.129,0,0,0,.748.706c.457.166,1.163.208,1.246.291a2.273,2.273,0,0,0,1.62.748c.166.415.457,1,.457,1a.324.324,0,0,0,.166.166c.042.042.955.5,1.163.623a14.394,14.394,0,0,1,1.537,1.08.153.153,0,0,0,.125.042l5.44,1.7a2.971,2.971,0,0,0,1.2,1.038l-3.9,3.572c-.042.042-.083.083-.083.125a3.121,3.121,0,0,1-1.661,1.578c-.664.249-.955.208-1.163.083a.145.145,0,0,1-.083-.042.907.907,0,0,0-.208-.125,1.4,1.4,0,0,0-.5-.166h-.125a2.259,2.259,0,0,0-1.246,1.246,1.384,1.384,0,0,0-.083.706h.706C106.282,103.565,106.282,103.441,106.365,103.275Zm6.188-9.842a.835.835,0,0,1-.166-.332.7.7,0,0,1,.083.208A.6.6,0,0,0,112.553,93.432Zm-.125-.166c-.042-.042-.042-.125-.083-.166,0-.042-.042-.042-.042-.083A.676.676,0,0,1,112.428,93.266Z" transform="translate(-87.22 -79.354)" fill="none"/><path d="M128.866,111.232c-.042-.042-.042-.083-.083-.125a.317.317,0,0,1-.083-.208A.513.513,0,0,0,128.866,111.232Z" transform="translate(-103.533 -97.154)" fill="#fff"/><path d="M182.8,117h0c.042,0,.125.042.166.042C182.925,117,182.883,117,182.8,117Z" transform="translate(-135.166 -100.721)" fill="#fff"/><path d="M140.153,102.178H130.02l.042-.042c.581-.623.249-1.454,0-2.16a2.025,2.025,0,0,0-.125-.291c-.125-.374-.291-.831-.332-.955-.083-.291-.208-.581-.332-.955a8.747,8.747,0,0,1-.581-1.869,1.444,1.444,0,0,0-.415-.831,3.33,3.33,0,0,0-1.578-.789,5.612,5.612,0,0,1-2.741-1.827l-.083-.166a13,13,0,0,0-1.329-2.076,6.686,6.686,0,0,0,4.153-2.409,4.048,4.048,0,0,0,.623-3.779q-.81-2.243-4.111-2.243a34.524,34.524,0,0,0-7.683,1.454,25.618,25.618,0,0,1-5.025,1.038h-.166a.041.041,0,0,0-.042-.042,6.049,6.049,0,0,0-2.45-2.326,5.282,5.282,0,0,0-1.952-.457h-.208a2.418,2.418,0,0,0-.789-.125,2.761,2.761,0,0,0-.872.125,4.734,4.734,0,0,0-.415-.789A5.633,5.633,0,0,0,98.624,77.8h-.54a2.343,2.343,0,0,0-1.37.623,3.572,3.572,0,0,0-.664-.042,2.564,2.564,0,0,0-1.038.208,3.058,3.058,0,0,0-1,.706,19.388,19.388,0,0,0-2.2-.166h0a1.6,1.6,0,0,0-1.287.457,2.013,2.013,0,0,0-.374,1.869l.042.083.042.083h0l-.083.208-.042.042v.042a2.064,2.064,0,0,0,.332,1.952,4.561,4.561,0,0,0-.208,2.7,1.162,1.162,0,0,0,.706.914,1.279,1.279,0,0,0,.54.125,1.4,1.4,0,0,0,.706-.208h0l-.125.5a1.43,1.43,0,0,1-.374.042,4.487,4.487,0,0,1-.872-.208,3.844,3.844,0,0,0-.955-.166h-.083a.153.153,0,0,1-.125-.042,8.522,8.522,0,0,1-1.163-.332A8.458,8.458,0,0,0,84.5,84.154l-1.329-.332a.153.153,0,0,1-.125-.042l-.457-.125-.748-.208-.457.664-.042.083-.664,1,.125.083-.457.831.415.291-.083.208-.042.083-.415.789.623.5c0,.042,0,.042.042.083A2.348,2.348,0,0,0,82.3,89.387a4.994,4.994,0,0,0,1,.249h.083a3.868,3.868,0,0,0,1.412.748,5.4,5.4,0,0,0,.249.5,1.378,1.378,0,0,0,.623.664c.125.083,1,.54,1.2.623a15.3,15.3,0,0,1,1.329.955.99.99,0,0,0,.457.249l5.108,1.62c.042.042.083.125.166.166l-2.907,2.7a1.408,1.408,0,0,0-.374.581,2.376,2.376,0,0,1-1.08.955,1.692,1.692,0,0,1-.291.083c-.083-.042-.125-.083-.208-.125a2.358,2.358,0,0,0-.914-.291h-.125a1.493,1.493,0,0,0-.457.083,3.3,3.3,0,0,0-1.91,1.91,3.253,3.253,0,0,0-.166,1.08H68.1l2.907,2.824c2.45,2.409,3.7,5.731,3.7,9.842,0,7.351.166,35.466.166,36.5a21.148,21.148,0,0,0,1.038,6.728,15.15,15.15,0,0,0,8.6,9.718c2.658,1.121,5.523,2.035,8.306,2.907,5.316,1.7,10.382,3.281,11.96,5.9l1.412,2.326,1.412-2.326c1.62-2.658,6.645-4.236,11.96-5.9,2.782-.872,5.606-1.786,8.306-2.907a15.259,15.259,0,0,0,8.6-9.718,22.844,22.844,0,0,0,1.038-6.728c0-.914.166-29.112.166-36.5,0-4.111,1.246-7.434,3.7-9.8l2.907-2.824h-4.111Zm.457,2.118c-2.616,2.533-3.987,6.188-3.987,10.507,0,7.475-.166,36.255-.166,36.546.042,1.163.083,11.67-9.012,15.532-2.616,1.121-5.482,1.993-8.223,2.866-5.523,1.744-10.715,3.405-12.542,6.354l-.581.914-.581-.914c-1.786-2.949-7.018-4.61-12.542-6.354-2.741-.872-5.565-1.744-8.223-2.866-9.095-3.862-9.053-14.369-9.012-15.532,0-.291-.166-29.07-.166-36.5,0-4.319-1.37-7.974-3.987-10.507l-1.163-1.121H86.788c-.083-.083-.208-.166-.249-.249a2.64,2.64,0,0,1-.249-.748,2.057,2.057,0,0,1,.083-.706,2.259,2.259,0,0,1,1.246-1.246c.042,0,.083-.042.125,0a1.4,1.4,0,0,1,.5.166c.083.042.125.083.208.125a.129.129,0,0,0,.083.042c.208.125.457.125,1.163-.083a3.121,3.121,0,0,0,1.661-1.578c0-.042.042-.083.083-.125l3.9-3.572a3.221,3.221,0,0,1-1.2-1.038L88.7,92.5c-.042,0-.083-.042-.125-.042a11.14,11.14,0,0,0-1.537-1.08c-.208-.125-1.121-.581-1.163-.623a.324.324,0,0,1-.166-.166c0-.042-.291-.581-.457-1a2.679,2.679,0,0,1-1.62-.748c-.083-.083-.789-.125-1.246-.291a1.248,1.248,0,0,1-.748-.706A.275.275,0,0,1,81.6,87.6l-.208-.166.042-.083.249.083h.042a2.007,2.007,0,0,1,0-1,.59.59,0,0,1,.083-.249l-.249-.166.042-.083.54.208A3.422,3.422,0,0,1,82.3,85.4v-.125l-.332-.166.042-.083.54.125h.042l1.329.332a7.552,7.552,0,0,1,3.53,2.824,7.151,7.151,0,0,0,1.952.623c.374-.083.955.291,1.869.374a4.406,4.406,0,0,0,1.412-.249,8.92,8.92,0,0,1,.706-2.492,1.042,1.042,0,0,1-.415-.042,2.637,2.637,0,0,0-1.7.166.265.265,0,0,1-.249,0c-.083-.042-.332-1.661.083-2.118.291-.332,1.7-.291,2.7-.208a1.423,1.423,0,0,0-.249-.748c-.042.042-.125.042-.125-.042l-.083.5a1.151,1.151,0,0,1-.332-.5s-.332.249-.415,0l-.083.5a1.151,1.151,0,0,1-.332-.5s-.332.249-.415,0l-.083.5a1.572,1.572,0,0,1-.332-.5.527.527,0,0,1-.249-.042c-.374-.166-.415-.664-.291-1.08l.291-.664L90.9,81.33a.928.928,0,0,1,.166-.831c.083-.083.374-.208,3.115.166a3.045,3.045,0,0,1,1-.872,3.872,3.872,0,0,1,1.7.042,1.5,1.5,0,0,1,1-.706,4.517,4.517,0,0,1,4.527,2.284c1.08,1.786,1,4.319.914,5.523a12.37,12.37,0,0,0,6.686,1.5,14.576,14.576,0,0,0,3.281-.706,6.609,6.609,0,0,1,4.111-.042c3.405-.042,4.485-1.121,4.817-1.537a.7.7,0,0,0,.166-.623c-.291-2.741-14.286,4.153-18.065.125a1.444,1.444,0,0,1-.332-1.163,1.357,1.357,0,0,1-.374-1.62,2.45,2.45,0,0,1,1.661-.042s.54-.208,1.827.332c1.038.415,1.7,1.62,2.243,2.326,2.658,1,15.034-5.108,16.57-.872a2.984,2.984,0,0,1-.457,2.741c-1.038,1.412-3.156,2.2-6.022,2.243a.5.5,0,0,0,.208.208c.249.166.5.332.706.457,1.246.831,1.454,1.2,2.367,2.866a6.731,6.731,0,0,0,3.488,2.367,2.023,2.023,0,0,1,1.038.5.317.317,0,0,1,.083.208,9.322,9.322,0,0,0,.664,2.16,6.832,6.832,0,0,1,.291.831c.042.208.208.623.332,1.08.166.457.5,1.2.332,1.37-.125.125-.706.415-1.2.748a2.683,2.683,0,0,0-.706.623c-.125.166-.374.166-.457.208h0c-.042,0-.042.083-.083.125a.041.041,0,0,1-.042.042h15.075Zm-22.8-17.9a24.955,24.955,0,0,1,3.156-.581,7.291,7.291,0,0,1-3.073.581C117.852,86.438,117.852,86.4,117.81,86.4Z" transform="translate(-68.1 -77.8)" fill="#fff"/><path d="M139.217,126.294a1.17,1.17,0,0,0,.872.291,3.128,3.128,0,0,0,2.035-1.038,1.708,1.708,0,0,1,.872-.5c.374-.125.457-.166.457-.291a8.394,8.394,0,0,0-.374-2.658h-.125c-4.236,1.952-7.683,2.658-9.718,1.786a10.052,10.052,0,0,1-1.62.664c-.291.125-.623.249-.955.415a10.771,10.771,0,0,0-3.738,2.409.275.275,0,0,1-.291.083,1.748,1.748,0,0,0-1.163.291.9.9,0,0,0-.291.374,1.206,1.206,0,0,0-.125.581.352.352,0,0,1-.291.332c-.249.042-.457.083-.664.125h13.372c-.042,0-.083-.042-.125-.042a.654.654,0,0,1-.291-.291,2.25,2.25,0,0,1-.083-.623,1.692,1.692,0,0,1,.208-.748,2.333,2.333,0,0,1,1.786-1.121C139.009,126.17,139.134,126.211,139.217,126.294Zm-3.073.457a3.215,3.215,0,0,0-.374,1.287h-8.057a9.8,9.8,0,0,1,3.239-2.076h0a10.141,10.141,0,0,0,1-.415q.685-.249,1.246-.5a6.345,6.345,0,0,0,2.035.291,18.546,18.546,0,0,0,6.935-1.744c0,.166.042.332.042.5a2.335,2.335,0,0,0-1.038.748,2.231,2.231,0,0,1-1.246.623h-.083a1.45,1.45,0,0,0-1-.415.527.527,0,0,0-.249.042A3.5,3.5,0,0,0,136.143,126.751Z" transform="translate(-100.844 -103.703)" fill="#fff"/><path d="M181.007,125.934a1.046,1.046,0,0,1,.831.166.788.788,0,0,0,.374.125,1.253,1.253,0,0,0,.914-.457,1.213,1.213,0,0,0-.083-.914c-.042-.083-.042-.208-.083-.291,0,0-.125-.249-1.5-.54-.872-.166-1.993-.291-2.866-.374a9.47,9.47,0,0,1-1.744-.249.977.977,0,0,0-.332-.083,3.2,3.2,0,0,1-1.952-1.163l-.457-.166c-.042,0-.083-.042-.125-.083a4.379,4.379,0,0,1-.332-.54.041.041,0,0,1-.042-.042l-.125-.125c-.332.332-.5.831-.831,1.08a5.2,5.2,0,0,0-1.578,1.578,4.541,4.541,0,0,0-.249,1.744.311.311,0,0,1-.042.208,2.821,2.821,0,0,1-1.91.415c-.457-.042-1.578.955-1.993,1.329a.145.145,0,0,1-.083.042c-.083.042-.166.125-.249.166a2.019,2.019,0,0,0-.706.623.276.276,0,0,1-.208.166h14.245a.216.216,0,0,1-.083-.166.041.041,0,0,0-.042-.042c-.042-.042-.042-.083-.083-.083a1.881,1.881,0,0,1-.125-.664,1.352,1.352,0,0,1,.166-.581A2.286,2.286,0,0,1,181.007,125.934Zm-2.16.54a3.2,3.2,0,0,0-.291,1.08h-9.925a2.816,2.816,0,0,1,.374-.249h.208a3.274,3.274,0,0,0,2.492-.872,1.286,1.286,0,0,0,.249-.914,4.235,4.235,0,0,1,.083-1.121,3.857,3.857,0,0,1,1.246-1.2c.083-.083.166-.125.249-.208.042.042.125.042.166.083l.166.042a4.629,4.629,0,0,0,2.326,1.329c.083.042.208.042.291.083a12.4,12.4,0,0,0,1.993.291c.581.042,1.246.125,1.91.208A2.775,2.775,0,0,0,178.848,126.474Z" transform="translate(-125.109 -103.176)" fill="#fff"/><path d="M161,125.794c.083-.042.166-.125.249-.166a5.169,5.169,0,0,1,2.575-1.121,1.294,1.294,0,0,0,1.121-.415,4.477,4.477,0,0,1,.332-1.952,5.025,5.025,0,0,1,1.661-1.7c.166-.706-.332-1.5-2.326-1.537-.291.125-.54.291-.831.415h0a2.332,2.332,0,0,1,.748.914c-.042.042-.706-.623-.955-.789a1.041,1.041,0,0,0-.291.166,2.078,2.078,0,0,1,.581.789,7.629,7.629,0,0,1-.831-.664c-.125.042-.208.125-.332.166a1.965,1.965,0,0,1,.457.664,6.111,6.111,0,0,1-.664-.54c-.083.042-.125.083-.208.083a7.591,7.591,0,0,1,.831,2.741c0,.623-.54.831-.914.955a1.313,1.313,0,0,0-.54.291,3.711,3.711,0,0,1-2.658.914c-.5,0-.831.291-1.163,0a1.611,1.611,0,0,0-1.121.748.928.928,0,0,0-.125.415v.332c.042.042.166.042.332,0a1.494,1.494,0,0,1,.208-.374.717.717,0,0,1,.166-.125.256.256,0,0,1,.291.042c0,.042.042.042.042.083,0,.083,0,.166-.083.208a1.5,1.5,0,0,0-.166.208.574.574,0,0,1,.166.125c.083.042.166.125.54-.042a1.059,1.059,0,0,1,.374-.457.214.214,0,1,1,.208.374.717.717,0,0,0-.166.125,2.669,2.669,0,0,0,1.62-.166,2.927,2.927,0,0,1,.291-.374C160.628,126,160.836,125.877,161,125.794Zm4.444-5.233.208-.208c.083-.083.166,0,.083.083l-.208.208a3.343,3.343,0,0,0-1.121,2.533.758.758,0,0,0,.249.623.205.205,0,0,1-.042.291.153.153,0,0,1-.125.042.315.315,0,0,1-.166-.083,1.428,1.428,0,0,1-.332-.872A3.652,3.652,0,0,1,165.446,120.561Z" transform="translate(-119.847 -101.832)" fill="#fff"/><path d="M147.244,104.642a5.337,5.337,0,0,0,1.537-.872c-.042-.208-.208-.623-.332-1.038-.166-.457-.291-.872-.374-1.121a7.637,7.637,0,0,0-.249-.748,9.067,9.067,0,0,1-.664-2.2,1.708,1.708,0,0,0-.664-.249,6.107,6.107,0,0,1-3.53-2.7,5.948,5.948,0,0,0-2.533-2.616,5.649,5.649,0,0,1-.706-.5,2.225,2.225,0,0,1-.664-1,.325.325,0,0,1,.042-.332.42.42,0,0,1,.291-.166c3.945.042,5.482-1.2,6.022-1.952a2.387,2.387,0,0,0,.415-2.076c-.54-1.62-3.239-1.62-9.842.125-6.312,1.62-6.6.706-6.645.623a4.572,4.572,0,0,0-3.987-2.409s1.454.789,1.246,1.038a17.258,17.258,0,0,1-1.952-1c.166.166,1.537,1.08,1.412,1.412-.042.042-1.786-1.121-1.786-1.121s1.869,1.869,1.744,2.076a4.241,4.241,0,0,1-1.121-.872c.208.748.415,1.786,4.485,1.7a30.3,30.3,0,0,0,5.4-.706c4.817-1.329,7.226-1.744,8.264-1.08a1.279,1.279,0,0,1,.581.872,1.44,1.44,0,0,1-.291,1.2c-.706.872-2.533,1.329-5.4,1.329a.153.153,0,0,1-.125-.042,3.491,3.491,0,0,0-2.16.042c-.042.042-.083.042-.125.083a18.249,18.249,0,0,0-6.562,2.741c-.042.042-.208-.042-.125-.125a12.739,12.739,0,0,1,2.035-1.287h-.166a10.434,10.434,0,0,1-5.274-1.246c-1.246-.706-2.409,1.121-3.115,2.824a15.032,15.032,0,0,1,.955,1.37,3.7,3.7,0,0,1-1.08-.955c-.083.166-.125.374-.208.54a10.45,10.45,0,0,1,.955,1.412,4.047,4.047,0,0,1-1.121-1,3.857,3.857,0,0,0-.166.54c.249.415,1.038,1.329,1,1.412a4.047,4.047,0,0,1-1.121-1c0,.042-.042.125-.042.166a.276.276,0,0,1-.208.166h-.042a.228.228,0,0,1-.166-.249,10.177,10.177,0,0,1,.748-1.91c.208-.457.54-1.2.789-1.869.291-.955.5-2.076.581-2.492.125-1.08.249-3.613-.914-5.191a5.05,5.05,0,0,0-3.862-2.118.781.781,0,0,0-.706.332.253.253,0,0,1-.291.125,3.444,3.444,0,0,0-1.578.083,2.313,2.313,0,0,0-.872.748.3.3,0,0,1-.249.125c-.415-.042-.872-.125-1.287-.125-.208.249-.5.208-.664.249-.125.042-.706.581-.748.581v.042l-.125.706V85a1.907,1.907,0,0,0-.042.415,3.581,3.581,0,0,0,.914.042s1.37.083,1.661.083c.166,0,.166,1.37.125,1.537a.312.312,0,0,1-.291.208,16.7,16.7,0,0,0-2.409-.166,3.288,3.288,0,0,0,0,1.287,3.024,3.024,0,0,1,1.7-.083,4.081,4.081,0,0,0,1.62-.083.979.979,0,0,1,.664-.374.492.492,0,0,1,.374.208.782.782,0,0,1,.166.54c-.125-.332-.374-.415-.581-.208-.042,0-.083.083-.208.166a1.068,1.068,0,0,1-.581.208c-.914,1.91-2.16,4.776-1.2,5.606.083.042-.042.042-.083.042,0,.042.042.042.042.083,0,0-2.035-1.62-2.492-1.5-.415.083-1-1.038-1.163-1.121h-.083a.185.185,0,0,1-.208,0,7.572,7.572,0,0,1-1.993-.872l-.125-.125A6.4,6.4,0,0,0,104.22,88.4l-.914-.249c-.581.291.125.872.623,1.08.083.042.166.166.125.249a.223.223,0,0,1-.166.125H103.8c-.374-.166-1.08-.54-1.08-.54-.249.54.664.789.706.789a.238.238,0,0,1,.083.291.223.223,0,0,1-.166.125c-.042,0-.042,0-.083-.042a3.871,3.871,0,0,1-.54-.291.263.263,0,0,0-.042.249c.042.166.291.291.332.332a1.991,1.991,0,0,0,1,.042h.083a1.471,1.471,0,0,1,.083-.5.174.174,0,0,1,.249-.125c.125.042.249.249.125.249-.332-.042-.208.54-.083.914.042.042.125.083.166.125a1.791,1.791,0,0,0,1.121.083l.042-.042c.042,0,.042-.042.083-.042a.978.978,0,0,1,.083-.332,1.975,1.975,0,0,1-1.5-1.246c-.042-.125.083-.291.083-.208.249.872,1.7,1.08,1.744,1.08.083,0,.125.042.166.125a.189.189,0,0,1,0,.208.789.789,0,0,0-.125.581v.125c.125.291.332.748.415,1a18.1,18.1,0,0,1,2.2,1.287c.291.706,5.233,1.62,5.233,1.62a22.855,22.855,0,0,1,.291-3.239c.374-.083.249.581.249.872a3.673,3.673,0,0,0,0,.955l.415,1.287a3.871,3.871,0,0,0,1.661,1.454c.249-.208.457-.415.623-.581.332-.291,1-.415,1.37-.706.332-.291.872-.706.955-.831.042-.125.166.415-.831,1.2-.332.291-.748.581-1.038.872-1.62,1.454-4.942,4.444-5.44,4.9a2,2,0,0,1-.415.374,2.3,2.3,0,0,1-.332.249c-.664.457-1.454,1-1.5,1-1.08.374-1.287.5-1.7.249h-.042c-.042-.042-.083-.042-.125-.083a.153.153,0,0,0-.125-.042,1.54,1.54,0,0,0-.748.789.863.863,0,0,0-.042.457.877.877,0,0,0,.166.415v.042a.314.314,0,0,0,.166-.042,1.884,1.884,0,0,1,.042-.415h0a.228.228,0,0,1,.249-.166c.083,0,.125.083.166.166v.083a1.3,1.3,0,0,0-.042.374c.042.042.083.042.083.083a1.09,1.09,0,0,0,.831.042,1.039,1.039,0,0,1,.125-.54h0a.2.2,0,0,1,.249-.083.089.089,0,0,1,.083.083.185.185,0,0,1,0,.208,1.227,1.227,0,0,0-.083.374c.623.249.706.249.914.125a.981.981,0,0,1,.54-.083,3.9,3.9,0,0,0,.914-.083c.042-.166.083-.332.125-.54a1.477,1.477,0,0,1,.457-.914,2.21,2.21,0,0,1,1.537-.415,8.7,8.7,0,0,1,1.786-1.163,12.53,12.53,0,0,1,2.243-1c.042,0,.083-.042.125-.042.208-.166.332-.457.581-.54a12.035,12.035,0,0,0,1.869-.789.311.311,0,0,1,.208-.042,8.62,8.62,0,0,0,1.869-1.827c.623-.664,1.08-1.37,2.45-.955.208.083.5.374.291.374a1.21,1.21,0,0,0-.332-.083c-1.121-.125-1.329.5-1.91,1.121a7.948,7.948,0,0,1-1.454,1.329c1.91.706,4.4.332,8.472-1.578a.145.145,0,0,0,.083-.042l.042-.042h0a13.009,13.009,0,0,1,5.482-1.7.983.983,0,0,1,1.121.872,1.588,1.588,0,0,0,.374.748.305.305,0,0,1,.083.249,1.806,1.806,0,0,0,.249.291l.457.166a.573.573,0,0,1,.166.125,2.719,2.719,0,0,0,1.62,1,.978.978,0,0,0,.332.083,12.177,12.177,0,0,0,1.62.208c3.2.332,4.776.623,4.984,1.412.042.083.042.166.083.249.125.415-.125.789-.415,1.287-.208.374-.249.789-.955.955a1.3,1.3,0,0,1-.831-.166c-.166-.083-.249-.125-.374-.083a1.363,1.363,0,0,0-.748.623.6.6,0,0,0-.083.291.7.7,0,0,0,.166.54v.042h.332c0-.125.042-.208.042-.291a.2.2,0,0,1,.374.125c0,.083-.042.125-.042.208a1.816,1.816,0,0,0,.872.125.991.991,0,0,1,.083-.581.185.185,0,0,1,.249-.125c.083.042.166.166.125.249a.469.469,0,0,0-.042.332.374.374,0,0,1,.208.042,1.129,1.129,0,0,0,.374,0,.6.6,0,0,1,.083-.125.747.747,0,0,1,.374-.332,2.788,2.788,0,0,0,.623-.249ZM122.2,88.529a.2.2,0,0,1,0,.291c-.042.042-3.032,3.447-1.7,5.565.042.083-.042.042-.083-.042-1.454-2.409,1.37-5.689,1.5-5.814A.2.2,0,0,1,122.2,88.529Zm-3.53-5.482a1.129,1.129,0,0,1,1.2.374c.581,1.08-.208,1.62-.581,1.62a1.047,1.047,0,0,1-.623-.208c.955.374,1.287-.581.872-1.163a.7.7,0,0,0-.748-.208.2.2,0,0,1-.249-.125A.215.215,0,0,1,118.672,83.047Zm-4.817,1.246c-.042-.125,1.246-.581,1.246-.581a4.134,4.134,0,0,1,2.907-.706.2.2,0,0,1,.208.208c0,.125-.083.042-.208,0a3.382,3.382,0,0,0-2.658,1.08A4.422,4.422,0,0,0,113.855,84.293Zm2.7.125c.166.083.083.208,0,.332-.208.415-.789-.042-.789-.042l.042-.042a.041.041,0,0,0-.042.042c.042-.042.083-.125.125-.166l.042-.083.042-.083h.042a.892.892,0,0,1,1.08-.332s-.623-.125-.831.332A.256.256,0,0,1,116.554,84.417Zm-1.246,1.537c-.083-.042.249-.54.332-.581a16.207,16.207,0,0,1,1.869.664l-.042.042c-.042,0-1.744-.415-1.786-.415a10.454,10.454,0,0,1,1.5,1.163h0c-.042,0-.914-.623-1.454-.872a5.453,5.453,0,0,1,1.08,1.91h0C116.72,87.823,115.931,86.286,115.308,85.954Zm0,5.606c-.042.083-.166.083-.166-.042a8.3,8.3,0,0,1,3.945-5.357.214.214,0,0,1,.208.374A7.8,7.8,0,0,0,115.308,91.56Zm1.578,3.364h-.042c-.789-.166-1.08-1.08-.914-2.658a5.365,5.365,0,0,1,2.035-3.738,14.961,14.961,0,0,0,2.326-2.16c.083-.457-.332-.5-.54-.5h0c.208,0,.748-.125.914.415a1.914,1.914,0,0,1-.706,1.661c-.5.5-1,.914-1.454,1.329C117.385,90.107,115.1,93.014,116.887,94.924Zm1.869-2.035a2,2,0,0,0,.332,1.952c.083.042.125.166,0,.083a2.39,2.39,0,0,1-1.163-1.952c-.415-2.45,2.45-4.319,2.533-4.4.5-.581,1.2-.955,1.246-1.744.042-.664-.374-1.08-.623-1.62-.166-.332-.415-1.2-.581-1.62a4.379,4.379,0,0,1,1.163,1.329,4.7,4.7,0,0,1,.208,1.952c-.042.914-.748,1.412-1.163,1.952A11.589,11.589,0,0,0,118.755,92.889Zm.291,6.935a2.54,2.54,0,0,1-.5.208c-.166.083-.374.166-.54.249a9.258,9.258,0,0,0-3.239,2.035.208.208,0,0,1-.249,0,.2.2,0,0,1,0-.291,9.66,9.66,0,0,1,3.364-2.16c.166-.083.332-.166.54-.249a2.54,2.54,0,0,1,.5-.208c1.287-.54,2.367-1.038,2.575-2.367,0-.125.166-.083.166.042C121.33,98.662,120.333,99.243,119.046,99.825Zm4.485-.457.54-.457c.042,0,.457-.042,1.08-.083.332-.581.914-2.035,1-2.035a5.842,5.842,0,0,1-.457,1.993c.249-.042.457-.042.706-.083.291-.581.955-2.118,1.038-2.118a5.984,5.984,0,0,1-.5,2.035c.249-.042.457-.083.706-.125.291-.457.955-2.16,1.038-2.16a5.113,5.113,0,0,1-.5,2.035c.208-.042.415-.125.581-.166C128.722,98.2,127.269,99.243,123.531,99.368Zm16.819-.125a.228.228,0,0,1-.208.125h-.083a3.345,3.345,0,0,1-1.744-2.16c-.374-.914-.706-1.91-1.661-1.91a7.016,7.016,0,0,0-2.492.789c-.332.125-.664.249-1.038.374a.2.2,0,1,1-.125-.374c.374-.125.706-.249,1.038-.374a6.385,6.385,0,0,1,2.616-.581c1.2,0,1.62.955,2.035,1.91a3.177,3.177,0,0,0,1.537,1.952A.174.174,0,0,1,140.351,99.243Zm5.856,0h0a5.4,5.4,0,0,1-3.364-2.118c-.208-.208-.664-.831-.581-.914s2.575,2.367,4.028,2.616c.125,0,.166.125.166.249A.28.28,0,0,1,146.206,99.243Zm.457.415a9.2,9.2,0,0,1,1.454,4.028.208.208,0,1,1-.415,0C147.743,102.233,146.58,99.742,146.663,99.658Z" transform="translate(-88.314 -80.306)" fill="#fff"/><path d="M128.625,110.891a2.025,2.025,0,0,1-.125-.291.145.145,0,0,0,.042.083C128.583,110.766,128.625,110.808,128.625,110.891Z" transform="translate(-103.416 -96.978)" fill="#fff"/></g><path d="M191.455,150.519l-1.412-.789-1.37.789.332-1.578-1.2-1.08,1.578-.166.664-1.5.706,1.5,1.578.166-1.2,1.08Z" transform="translate(-69.99 -39.994)" fill="#fff" fill-rule="evenodd"/><path d="M122.355,150.519l-1.412-.789-1.412.789.332-1.578-1.163-1.08,1.578-.166.664-1.5.664,1.5,1.578.166-1.163,1.08Z" transform="translate(-29.586 -39.994)" fill="#fff" fill-rule="evenodd"/><path d="M157.255,149.019l-1.412-.789-1.37.789.291-1.578-1.163-1.08,1.578-.208.664-1.454.706,1.454,1.578.208-1.2,1.08Z" transform="translate(-49.993 -39.117)" fill="#fff" fill-rule="evenodd"/><g transform="translate(83.341 116.713)"><path d="M108.718,184.992a6.7,6.7,0,0,0,2.741-.706,5.894,5.894,0,0,1,2.45-.748c.955,0,1.08.664,1.08.789l-.083.042c.042-.042.083-.042.166-.083v-.166h0a1.175,1.175,0,0,0-1.287-.914,4.873,4.873,0,0,0-2.243.748,6.5,6.5,0,0,1-2.741.748c-1.038,0-1.661-.5-1.744-.955V174.9l-.457.54v8.6C106.683,184.369,107.431,184.992,108.718,184.992Z" transform="translate(-105.852 -173.488)" fill="#fff"/><path d="M132.43,183.853a5.024,5.024,0,0,0-2.243-.748,1.213,1.213,0,0,0-1.287.872v.208c.042,0,.083.042.125.042l-.083-.042c0-.125.125-.789,1.08-.789a6.068,6.068,0,0,1,2.45.748,7.382,7.382,0,0,0,2.782.623c1.287,0,2.035-.54,2.118-.914v-8.472l-.457-.581v8.846c-.125.54-1.163.789-2.035.789A5.069,5.069,0,0,1,132.43,183.853Z" transform="translate(-118.891 -173.43)" fill="#fff"/><path d="M110.087,182.331a6.354,6.354,0,0,0,2.533-.706,5.718,5.718,0,0,1,2.45-.789,1.916,1.916,0,0,1,1.287.457c0-3.364.042-7.766,0-8.181-.332-.955-.831-1.412-1.7-1.412a7.891,7.891,0,0,0-2.2.5,11.45,11.45,0,0,1-1.121.332,5.262,5.262,0,0,1-1.412.166,3.78,3.78,0,0,1-1.121-.125v9.136C108.883,182,109.3,182.331,110.087,182.331Zm.083-7.434a7.533,7.533,0,0,0,2.782-.623h.042a2.418,2.418,0,0,1,2.45.332.235.235,0,0,1-.332.332,1.893,1.893,0,0,0-1.952-.249h-.042a9.3,9.3,0,0,1-2.782.664h-.166a.229.229,0,1,1,0-.457Zm0,1.91a7.205,7.205,0,0,0,2.741-.623l.083-.042a2.418,2.418,0,0,1,2.45.332.235.235,0,1,1-.332.332,1.893,1.893,0,0,0-1.952-.249l-.083.042a9.384,9.384,0,0,1-2.741.664h-.166a.268.268,0,0,1-.249-.249A.208.208,0,0,1,110.17,176.808Zm0,1.952a7.205,7.205,0,0,0,2.741-.623l.083-.042a2.418,2.418,0,0,1,2.45.332.235.235,0,1,1-.332.332,1.893,1.893,0,0,0-1.952-.249l-.083.042a9.384,9.384,0,0,1-2.741.664h-.166a.268.268,0,0,1-.249-.249A.233.233,0,0,1,110.17,178.76Z" transform="translate(-107.139 -171.617)" fill="#fff"/><path d="M128.9,181.218a1.836,1.836,0,0,1,1.287-.457,5.472,5.472,0,0,1,2.492.789,4.817,4.817,0,0,0,2.243.54,2.218,2.218,0,0,0,1.578-.415V172.5a5.417,5.417,0,0,1-.955.083,6.053,6.053,0,0,1-1.578-.208,10.727,10.727,0,0,1-1.08-.332,8.83,8.83,0,0,0-2.409-.54c-.623,0-1.287.166-1.537,1.5h0C128.9,173.452,128.9,175.072,128.9,181.218Zm6.229-2.076h-.166a7.983,7.983,0,0,1-2.741-.664l-.083-.042a1.816,1.816,0,0,0-1.952.249.235.235,0,1,1-.332-.332,2.315,2.315,0,0,1,2.45-.332l.083.042a7.205,7.205,0,0,0,2.741.623.239.239,0,0,1,.249.249C135.337,179.017,135.254,179.141,135.129,179.141Zm0-1.952h-.166a7.982,7.982,0,0,1-2.741-.664l-.083-.042a1.816,1.816,0,0,0-1.952.249.235.235,0,1,1-.332-.332,2.315,2.315,0,0,1,2.45-.332l.083.042a7.205,7.205,0,0,0,2.741.623.239.239,0,0,1,.249.249C135.337,177.065,135.254,177.189,135.129,177.189Zm-5.316-2.7a2.315,2.315,0,0,1,2.45-.332h.042a7.376,7.376,0,0,0,2.782.623.249.249,0,0,1,0,.5h-.166a8.382,8.382,0,0,1-2.782-.664H132.1a1.975,1.975,0,0,0-1.952.208.235.235,0,1,1-.332-.332Z" transform="translate(-118.891 -171.5)" fill="#fff"/><path d="M127.1,198.3h-.457a.731.731,0,0,0-.5.291h0l-.042.166h1.578l-.042-.166A.966.966,0,0,0,127.1,198.3Z" transform="translate(-117.254 -187.17)" fill="#fff"/><path d="M113.77,185.421a.552.552,0,0,0-.125-.291c-.374-.457-1.537-.291-3.281.54a8.132,8.132,0,0,1-2.866.623c-1.5,0-2.16-.706-2.243-1.038V176.7l-.457.54v8.306a1.593,1.593,0,0,0,.872.706c.706.374,2.243.789,4.61-.208,2.492-1.08,3.073-.914,3.322-.664.042.042.042.083.083.125C113.687,185.463,113.729,185.463,113.77,185.421Z" transform="translate(-104.8 -174.54)" fill="#fff"/><path d="M135.729,186.586a8.564,8.564,0,0,1-2.824-.581,6.586,6.586,0,0,0-2.575-.789.855.855,0,0,0-.706.249.449.449,0,0,0-.125.291c.042,0,.083.042.125.042,0-.042.042-.083.083-.125.249-.249.831-.415,3.322.664a5.394,5.394,0,0,0,4.61.249,2.072,2.072,0,0,0,.872-.706v-8.14l-.415-.54v8.43A2.635,2.635,0,0,1,135.729,186.586Z" transform="translate(-119.242 -174.833)" fill="#fff"/><g transform="translate(25.956)"><path d="M171.218,184.992a6.7,6.7,0,0,0,2.741-.706,5.894,5.894,0,0,1,2.45-.748c.955,0,1.08.664,1.08.789l-.083.042c.042-.042.083-.042.166-.083v-.166h0a1.175,1.175,0,0,0-1.287-.914,4.873,4.873,0,0,0-2.243.748,6.5,6.5,0,0,1-2.741.748c-1.038,0-1.661-.5-1.744-.955V174.9l-.457.54v8.6C169.183,184.369,169.931,184.992,171.218,184.992Z" transform="translate(-168.352 -173.488)" fill="#fff"/><path d="M172.529,182.331a6.021,6.021,0,0,0,2.492-.706,5.718,5.718,0,0,1,2.45-.789,1.916,1.916,0,0,1,1.287.457c0-3.364.042-7.766,0-8.181-.332-.955-.831-1.412-1.7-1.412a7.891,7.891,0,0,0-2.2.5,11.449,11.449,0,0,1-1.121.332,5.262,5.262,0,0,1-1.412.166,3.974,3.974,0,0,1-1.121-.125v9.136C171.325,182,171.7,182.331,172.529,182.331Zm.083-7.434a7.533,7.533,0,0,0,2.782-.623h.042a2.418,2.418,0,0,1,2.45.332.235.235,0,0,1-.332.332,1.893,1.893,0,0,0-1.952-.249h-.042a9.3,9.3,0,0,1-2.782.664h-.166a.229.229,0,1,1,0-.457Zm0,1.91a7.205,7.205,0,0,0,2.741-.623l.083-.042a2.418,2.418,0,0,1,2.45.332.235.235,0,0,1-.332.332,1.893,1.893,0,0,0-1.952-.249l-.083.042a9.384,9.384,0,0,1-2.741.664h-.166a.268.268,0,0,1-.249-.249A.208.208,0,0,1,172.612,176.808Zm0,1.952a7.205,7.205,0,0,0,2.741-.623l.083-.042a2.418,2.418,0,0,1,2.45.332.235.235,0,0,1-.332.332,1.893,1.893,0,0,0-1.952-.249l-.083.042a9.384,9.384,0,0,1-2.741.664h-.166a.268.268,0,0,1-.249-.249A.233.233,0,0,1,172.612,178.76Z" transform="translate(-169.58 -171.617)" fill="#fff"/><path d="M194.83,183.853a5.024,5.024,0,0,0-2.243-.748,1.213,1.213,0,0,0-1.287.872v.208c.042,0,.083.042.125.042l-.083-.042c0-.125.125-.789,1.08-.789a6.068,6.068,0,0,1,2.45.748,7.382,7.382,0,0,0,2.782.623c1.287,0,2.035-.54,2.118-.914v-8.472l-.457-.581v8.846c-.125.54-1.163.789-2.035.789A5.273,5.273,0,0,1,194.83,183.853Z" transform="translate(-181.333 -173.43)" fill="#fff"/><path d="M191.3,181.218a1.836,1.836,0,0,1,1.287-.457,5.472,5.472,0,0,1,2.492.789,4.818,4.818,0,0,0,2.243.54,2.218,2.218,0,0,0,1.578-.415V172.5a5.417,5.417,0,0,1-.955.083,6.053,6.053,0,0,1-1.578-.208,10.727,10.727,0,0,1-1.08-.332,8.829,8.829,0,0,0-2.409-.54c-.623,0-1.287.166-1.537,1.5h0C191.342,173.452,191.342,175.072,191.3,181.218Zm6.229-2.076h-.166a7.983,7.983,0,0,1-2.741-.664l-.083-.042a1.816,1.816,0,0,0-1.952.249.235.235,0,0,1-.332-.332,2.315,2.315,0,0,1,2.45-.332l.083.042a7.205,7.205,0,0,0,2.741.623.239.239,0,0,1,.249.249A.234.234,0,0,1,197.529,179.141Zm0-1.952h-.166a7.982,7.982,0,0,1-2.741-.664l-.083-.042a1.816,1.816,0,0,0-1.952.249.235.235,0,0,1-.332-.332,2.315,2.315,0,0,1,2.45-.332l.083.042a7.205,7.205,0,0,0,2.741.623.239.239,0,0,1,.249.249A.234.234,0,0,1,197.529,177.189Zm-5.274-2.7a2.315,2.315,0,0,1,2.45-.332h.042a7.376,7.376,0,0,0,2.782.623.249.249,0,0,1,0,.5h-.166a8.382,8.382,0,0,1-2.782-.664h-.042a1.975,1.975,0,0,0-1.952.208.253.253,0,0,1-.332,0C192.131,174.739,192.131,174.615,192.255,174.49Z" transform="translate(-181.333 -171.5)" fill="#fff"/><path d="M198.229,186.586a8.564,8.564,0,0,1-2.824-.581,6.586,6.586,0,0,0-2.575-.789.855.855,0,0,0-.706.249.449.449,0,0,0-.125.291c.042,0,.083.042.125.042,0-.042.042-.083.083-.125.249-.249.831-.415,3.322.664a5.394,5.394,0,0,0,4.61.249,2.072,2.072,0,0,0,.872-.706v-8.14l-.415-.54v8.43A2.7,2.7,0,0,1,198.229,186.586Z" transform="translate(-181.742 -174.833)" fill="#fff"/><path d="M176.27,185.421a.552.552,0,0,0-.125-.291c-.374-.457-1.537-.291-3.281.54a8.132,8.132,0,0,1-2.866.623c-1.5,0-2.16-.706-2.243-1.038V176.7l-.457.54v8.306a1.593,1.593,0,0,0,.872.706c.706.374,2.243.789,4.61-.208,2.492-1.08,3.073-.914,3.322-.664.042.042.042.083.083.125C176.187,185.463,176.229,185.463,176.27,185.421Z" transform="translate(-167.3 -174.54)" fill="#fff"/><path d="M189.538,198.3h-.5a.731.731,0,0,0-.5.291h0l-.042.166h1.578l-.042-.166A1,1,0,0,0,189.538,198.3Z" transform="translate(-179.696 -187.17)" fill="#fff"/></g></g><path d="M120.491,160.5A256.536,256.536,0,0,0,92.5,162.286c0,.291.042.581.042.872,0,10.05.042,26.5.125,37.044.374,8.68,5.233,12.168,12.334,14.245,5.856,1.7,11.545,2.99,15.407,6.6,3.862-3.613,9.552-4.9,15.407-6.6,7.143-2.076,11.96-5.565,12.334-14.245.083-10.548.125-26.994.125-37.044a6.132,6.132,0,0,1,.042-.872A256.373,256.373,0,0,0,120.491,160.5Zm8.8,44.27-1.246,1.661-3.655-3.987.083-.083Zm-4.568-7.475,4.319-3.239.914,1.869-5.191,1.5Zm.415,3.572.042-.125,5.4.54L130,203.275Zm.166-1.786v-.125L130.5,197.5l.208,2.076Zm5.274-3.447-.914-1.869,5.191-1.5.042.125Zm-2.118-3.364-1.537-1.412,4.319-3.281.083.083Zm-.457.457-4.319,3.281-.083-.083,2.866-4.568Zm-2.741-2.824-1.952-.748,2.824-4.61.125.042Zm-.249.581-2.824,4.61-.125-.042,1-5.316Zm-4.693-6.977h.125l.955,5.316h-2.076Zm1.121,5.98-.955,5.316h-.125l-.955-5.316Zm-11.836-1.661.083-.083,4.278,3.281-1.537,1.412Zm6.6,9.676-.042.125-5.191-1.5.914-1.869Zm-4.9-3.53-.914,1.869L106.08,192.6l.042-.125Zm-.748,3.779,5.191,1.454v.125l-5.4.457Zm5.357,3.2.042.125-4.859,2.367-.581-1.993Zm.831,1.578.083.083-3.655,3.987-1.246-1.661Zm-3.862-9.635,1.537-1.412,2.866,4.61-.083.083Zm1.7-8.223.125-.042,2.824,4.61-1.952.748Zm1.246,5.9,1.952-.748,1,5.316-.125.042ZM96.653,177.236l-.125-.125V166.6l1.62-.083.664-.831a.089.089,0,0,1,.083-.083.311.311,0,0,1,.208-.042,4.82,4.82,0,0,0,1.287.166,4.382,4.382,0,0,0,1.287-.166,8.2,8.2,0,0,0,1.08-.332,8.328,8.328,0,0,1,2.367-.5,2.054,2.054,0,0,1,1.952,1.2h.249a1.747,1.747,0,0,1,1.827-1.329,9.755,9.755,0,0,1,2.575.581c.332.125.706.208,1.038.332a5.182,5.182,0,0,0,1.454.166,7.844,7.844,0,0,0,1.163-.083.374.374,0,0,1,.208.042l.042.042h0l.664.831,1.7.083v10.8l-.208.125a6.4,6.4,0,0,1-3.738,1.121,10.643,10.643,0,0,1-4.9-1.37l-.042.042a.853.853,0,0,1-.623.208H106a.9.9,0,0,1-.623-.208c-.042-.042-.042-.042-.042-.083a12.114,12.114,0,0,1-5.067,1.412A4.634,4.634,0,0,1,96.653,177.236ZM104.5,198.25v-.125l5.4-.457-.208,2.076Zm.581,5.773,4.859-2.367.581,1.993-5.4.5ZM107.7,209.3l3.655-3.987,1.246,1.661-4.817,2.409Zm4.485,4.07-.125-.083,1.993-5.025,1.744,1.08Zm2.243-5.648,3.655-3.987.125.083-1.993,5.025Zm3.322,7.724-.125-.042.042-5.4,2.035.374Zm2.035-5.689-2.035-.374,1.952-5.067.125.042Zm-1.454-10.133a2.2,2.2,0,1,1,2.2,2.2A2.216,2.216,0,0,1,118.331,199.62Zm3.156,4.693.125-.042,1.91,5.067-2.035.374Zm2.035,11.088-1.91-5.067,2.035-.374v5.4Zm-.415-11.753.125-.083,3.613,4.028-1.786,1.08Zm5.939,9.593-3.613-4.028,1.786-1.08,1.952,5.025Zm4.361-3.987-4.817-2.45,1.246-1.661,3.655,3.987Zm2.616-5.316-5.357-.54.581-1.993,4.859,2.409Zm-4.693-4.4-.208-2.076,5.4.5v.125ZM143.872,177.4l-.208.125a6.4,6.4,0,0,1-3.738,1.121,10.643,10.643,0,0,1-4.9-1.37l-.042.042a.853.853,0,0,1-.623.208h-2.45a.9.9,0,0,1-.623-.208c-.042-.042-.042-.042-.042-.083a12.114,12.114,0,0,1-5.067,1.412,4.63,4.63,0,0,1-3.572-1.454l-.125-.125V166.563l1.62-.083.706-.831a.089.089,0,0,1,.083-.083.311.311,0,0,1,.208-.042,4.82,4.82,0,0,0,1.287.166,4.381,4.381,0,0,0,1.287-.166,8.2,8.2,0,0,0,1.08-.332,8.328,8.328,0,0,1,2.367-.5,2.054,2.054,0,0,1,1.952,1.2h.249a1.747,1.747,0,0,1,1.827-1.329,9.755,9.755,0,0,1,2.575.581c.332.125.706.208,1.038.332a5.182,5.182,0,0,0,1.454.166,7.843,7.843,0,0,0,1.163-.083.374.374,0,0,1,.208.042l.042.042h0l.664.831,1.7.083V177.4Z" transform="translate(-14.267 -48.355)" fill="#fff"/></g></svg>